Mertz Light-regular2.ufo
<glyph name="exclam" format="1">
  <advance width="466"/>
  <unicode hex="0021"/>
  <outline>
    <contour>
      <point x="203" y="344" type="line"/>
      <point x="254" y="344" type="line"/>
      <point x="311" y="1241" type="line"/>
      <point x="146" y="1241" type="line"/>
    </contour>
    <component base="period" xOffset="-23"/>
  </outline>
</glyph>
<glyph name="quotedbl" format="1">
  <advance width="651"/>
  <unicode hex="0022"/>
  <outline>
    <contour>
      <point x="418" y="780" type="line"/>
      <point x="470" y="780" type="line"/>
      <point x="526" y="1302" type="line"/>
      <point x="363" y="1302" type="line"/>
    </contour>
    <contour>
      <point x="182" y="780" type="line"/>
      <point x="235" y="780" type="line"/>
      <point x="290" y="1302" type="line"/>
      <point x="127" y="1302" type="line"/>
    </contour>
  </outline>
</glyph>
<glyph name="numbersign" format="1">
  <advance width="1143"/>
  <unicode hex="0023"/>
  <outline>
    <contour>
      <point x="134" y="0" type="line"/>
      <point x="263" y="0" type="line"/>
      <point x="609" y="1241" type="line"/>
      <point x="478" y="1241" type="line"/>
    </contour>
    <contour>
      <point x="104" y="414" type="line"/>
      <point x="994" y="414" type="line"/>
      <point x="994" y="513" type="line"/>
      <point x="104" y="513" type="line"/>
    </contour>
    <contour>
      <point x="154" y="724" type="line"/>
      <point x="1044" y="724" type="line"/>
      <point x="1044" y="824" type="line"/>
      <point x="154" y="824" type="line"/>
    </contour>
    <contour>
      <point x="530" y="0" type="line"/>
      <point x="659" y="0" type="line"/>
      <point x="1005" y="1241" type="line"/>
      <point x="874" y="1241" type="line"/>
    </contour>
  </outline>
</glyph>
<glyph name="dollar" format="1">
  <advance width="956"/>
  <unicode hex="0024"/>
  <outline>
    <contour>
      <point x="308" y="-193" type="line"/>
      <point x="391" y="-193" type="line"/>
      <point x="676" y="1399" type="line"/>
      <point x="592" y="1399" type="line"/>
    </contour>
    <contour>
      <point x="518" y="-34" type="curve" smooth="yes"/>
      <point x="709" y="-34"/>
      <point x="889" y="67"/>
      <point x="889" y="289" type="curve" smooth="yes"/>
      <point x="889" y="409"/>
      <point x="833" y="508"/>
      <point x="651" y="620" type="curve" smooth="yes"/>
      <point x="392" y="778" type="line" smooth="yes"/>
      <point x="308" y="831"/>
      <point x="255" y="893"/>
      <point x="255" y="966" type="curve" smooth="yes"/>
      <point x="255" y="1060"/>
      <point x="327" y="1142"/>
      <point x="500" y="1142" type="curve" smooth="yes"/>
      <point x="607" y="1142"/>
      <point x="752" y="1100"/>
      <point x="826" y="1061" type="curve"/>
      <point x="826" y="1201" type="line" smooth="yes"/>
      <point x="780" y="1223"/>
      <point x="650" y="1275"/>
      <point x="487" y="1275" type="curve" smooth="yes"/>
      <point x="233" y="1275"/>
      <point x="97" y="1131"/>
      <point x="97" y="960" type="curve" smooth="yes"/>
      <point x="97" y="846"/>
      <point x="174" y="746"/>
      <point x="297" y="671" type="curve" smooth="yes"/>
      <point x="573" y="500" type="line" smooth="yes"/>
      <point x="684" y="433"/>
      <point x="730" y="357"/>
      <point x="730" y="283" type="curve" smooth="yes"/>
      <point x="730" y="176"/>
      <point x="657" y="98"/>
      <point x="506" y="98" type="curve" smooth="yes"/>
      <point x="355" y="98"/>
      <point x="205" y="156"/>
      <point x="127" y="207" type="curve"/>
      <point x="127" y="69" type="line"/>
      <point x="171" y="43"/>
      <point x="306" y="-34"/>
    </contour>
  </outline>
</glyph>
<glyph name="percent" format="1">
  <advance width="1434"/>
  <unicode hex="0025"/>
  <outline>
    <contour>
      <point x="298" y="0" type="line"/>
      <point x="416" y="0" type="line"/>
      <point x="1136" y="1241" type="line"/>
      <point x="1016" y="1241" type="line"/>
    </contour>
    <component base="o" xOffset="11" yOffset="729" xScale="0.60" yScale="0.60"/>
    <component base="o" xOffset="759" yOffset="12" xScale="0.60" yScale="0.60"/>
  </outline>
</glyph>
<glyph name="ampersand" format="1">
  <advance width="1276"/>
  <unicode hex="0026"/>
  <outline>
    <contour>
      <point x="545" y="-33" type="curve" smooth="yes"/>
      <point x="851" y="-33"/>
      <point x="1115" y="219"/>
      <point x="1195" y="414" type="curve"/>
      <point x="1089" y="479" type="line"/>
      <point x="991" y="280"/>
      <point x="776" y="98"/>
      <point x="547" y="98" type="curve" smooth="yes"/>
      <point x="343" y="98"/>
      <point x="261" y="227"/>
      <point x="261" y="328" type="curve" smooth="yes"/>
      <point x="261" y="459"/>
      <point x="325" y="565"/>
      <point x="532" y="659" type="curve" smooth="yes"/>
      <point x="740" y="755"/>
      <point x="832" y="894"/>
      <point x="829" y="1029" type="curve" smooth="yes"/>
      <point x="827" y="1158"/>
      <point x="726" y="1271"/>
      <point x="497" y="1271" type="curve" smooth="yes"/>
      <point x="367" y="1271"/>
      <point x="185" y="1200"/>
      <point x="185" y="1022" type="curve" smooth="yes"/>
      <point x="185" y="942"/>
      <point x="225" y="849"/>
      <point x="347" y="723" type="curve" smooth="yes"/>
      <point x="1071" y="-34" type="line"/>
      <point x="1165" y="49" type="line"/>
      <point x="429" y="814" type="line"/>
      <point x="349" y="899"/>
      <point x="320" y="968"/>
      <point x="320" y="1019" type="curve" smooth="yes"/>
      <point x="320" y="1133"/>
      <point x="427" y="1162"/>
      <point x="521" y="1162" type="curve" smooth="yes"/>
      <point x="639" y="1162"/>
      <point x="699" y="1099"/>
      <point x="699" y="1020" type="curve" smooth="yes"/>
      <point x="699" y="936"/>
      <point x="639" y="838"/>
      <point x="485" y="769" type="curve" smooth="yes"/>
      <point x="221" y="652"/>
      <point x="117" y="507"/>
      <point x="117" y="315" type="curve" smooth="yes"/>
      <point x="117" y="150"/>
      <point x="266" y="-33"/>
    </contour>
  </outline>
</glyph>
<glyph name="parenleft" format="1">
  <advance width="479"/>
  <unicode hex="0028"/>
  <outline>
    <contour>
      <point x="219" y="-44" type="line"/>
      <point x="125" y="156"/>
      <point x="78" y="393"/>
      <point x="78" y="651" type="curve" smooth="yes"/>
      <point x="78" y="908"/>
      <point x="125" y="1145"/>
      <point x="219" y="1345" type="curve"/>
      <point x="381" y="1345" type="line"/>
      <point x="288" y="1134"/>
      <point x="245" y="887"/>
      <point x="245" y="651" type="curve" smooth="yes"/>
      <point x="245" y="414"/>
      <point x="288" y="166"/>
      <point x="382" y="-44" type="curve"/>
    </contour>
  </outline>
</glyph>
<glyph name="parenright" format="1">
  <advance width="480"/>
  <unicode hex="0029"/>
  <outline>
    <contour>
      <point x="68" y="-44" type="line"/>
      <point x="161" y="166"/>
      <point x="204" y="414"/>
      <point x="204" y="650" type="curve" smooth="yes"/>
      <point x="204" y="886"/>
      <point x="161" y="1134"/>
      <point x="67" y="1345" type="curve"/>
      <point x="229" y="1345" type="line"/>
      <point x="323" y="1145"/>
      <point x="370" y="907"/>
      <point x="370" y="650" type="curve" smooth="yes"/>
      <point x="370" y="393"/>
      <point x="324" y="155"/>
      <point x="230" y="-44" type="curve"/>
    </contour>
  </outline>
</glyph>
<glyph name="asterisk" format="1">
  <advance width="1086"/>
  <unicode hex="002A"/>
  <outline>
    <contour>
      <point x="306" y="478" type="line"/>
      <point x="519" y="773" type="line"/>
      <point x="733" y="478" type="line"/>
      <point x="826" y="562" type="line"/>
      <point x="587" y="824" type="line"/>
      <point x="911" y="939" type="line"/>
      <point x="865" y="1052" type="line"/>
      <point x="559" y="902" type="line"/>
      <point x="588" y="1248" type="line"/>
      <point x="449" y="1248" type="line"/>
      <point x="479" y="902" type="line"/>
      <point x="174" y="1052" type="line"/>
      <point x="128" y="939" type="line"/>
      <point x="451" y="824" type="line"/>
      <point x="213" y="562" type="line"/>
    </contour>
  </outline>
</glyph>
<glyph name="plus" format="1">
  <advance width="872"/>
  <unicode hex="002B"/>
  <outline>
    <contour>
      <point x="384" y="312" type="line"/>
      <point x="498" y="312" type="line"/>
      <point x="498" y="539" type="line"/>
      <point x="727" y="539" type="line"/>
      <point x="727" y="653" type="line"/>
      <point x="498" y="653" type="line"/>
      <point x="498" y="882" type="line"/>
      <point x="384" y="882" type="line"/>
      <point x="384" y="653" type="line"/>
      <point x="156" y="653" type="line"/>
      <point x="156" y="539" type="line"/>
      <point x="384" y="539" type="line"/>
    </contour>
  </outline>
</glyph>
<glyph name="comma" format="1">
  <advance width="479"/>
  <unicode hex="002C"/>
  <outline>
    <contour>
      <point x="122" y="-163" type="curve"/>
      <point x="187" y="-163" type="line"/>
      <point x="309" y="-60"/>
      <point x="354" y="22"/>
      <point x="354" y="88" type="curve" smooth="yes"/>
      <point x="354" y="138"/>
      <point x="317" y="192"/>
      <point x="250" y="192" type="curve" smooth="yes"/>
      <point x="181" y="192"/>
      <point x="143" y="139"/>
      <point x="143" y="88" type="curve" smooth="yes"/>
      <point x="143" y="45"/>
      <point x="169" y="3"/>
      <point x="215" y="-11" type="curve"/>
      <point x="202" y="-64"/>
      <point x="161" y="-112"/>
    </contour>
  </outline>
</glyph>
<glyph name="hyphen" format="1">
  <advance width="880"/>
  <unicode hex="002D"/>
  <outline>
    <contour>
      <point x="160" y="535" type="line"/>
      <point x="730" y="535" type="line"/>
      <point x="730" y="660" type="line"/>
      <point x="160" y="660" type="line"/>
    </contour>
  </outline>
</glyph>
<glyph name="period" format="1">
  <advance width="489"/>
  <unicode hex="002E"/>
  <outline>
    <contour>
      <point x="246" y="-16" type="curve" smooth="yes"/>
      <point x="313" y="-16"/>
      <point x="350" y="36"/>
      <point x="350" y="88" type="curve" smooth="yes"/>
      <point x="350" y="138"/>
      <point x="313" y="192"/>
      <point x="246" y="192" type="curve" smooth="yes"/>
      <point x="177" y="192"/>
      <point x="140" y="139"/>
      <point x="140" y="88" type="curve" smooth="yes"/>
      <point x="140" y="36"/>
      <point x="177" y="-16"/>
    </contour>
  </outline>
</glyph>
<glyph name="slash" format="1">
  <advance width="639"/>
  <unicode hex="002F"/>
  <outline>
    <contour>
      <point x="77" y="0" type="line"/>
      <point x="225" y="0" type="line"/>
      <point x="782" y="1241" type="line"/>
      <point x="633" y="1241" type="line"/>
    </contour>
  </outline>
</glyph>
<glyph name="zero" format="1">
  <advance width="1239"/>
  <unicode hex="0030"/>
  <outline>
    <contour>
      <point x="620" y="105" type="curve" smooth="yes"/>
      <point x="395" y="105"/>
      <point x="254" y="238"/>
      <point x="254" y="621" type="curve" smooth="yes"/>
      <point x="254" y="1000"/>
      <point x="395" y="1136"/>
      <point x="620" y="1136" type="curve" smooth="yes"/>
      <point x="846" y="1136"/>
      <point x="985" y="999"/>
      <point x="985" y="621" type="curve" smooth="yes"/>
      <point x="985" y="238"/>
      <point x="846" y="105"/>
    </contour>
    <contour>
      <point x="620" y="-34" type="curve" smooth="yes"/>
      <point x="956" y="-34"/>
      <point x="1149" y="185"/>
      <point x="1149" y="620" type="curve" smooth="yes"/>
      <point x="1149" y="1077"/>
      <point x="957" y="1274"/>
      <point x="620" y="1274" type="curve" smooth="yes"/>
      <point x="283" y="1274"/>
      <point x="90" y="1077"/>
      <point x="90" y="620" type="curve" smooth="yes"/>
      <point x="90" y="185"/>
      <point x="284" y="-34"/>
    </contour>
  </outline>
</glyph>
<glyph name="one" format="1">
  <advance width="622"/>
  <unicode hex="0031"/>
  <outline>
    <contour>
      <point x="301" y="0" type="line"/>
      <point x="466" y="0" type="line"/>
      <point x="466" y="1265" type="line"/>
      <point x="466" y="1265"/>
      <point x="228" y="1111"/>
      <point x="52" y="1041" type="curve"/>
      <point x="52" y="903" type="line"/>
      <point x="134" y="928"/>
      <point x="223" y="965"/>
      <point x="301" y="1013" type="curve"/>
    </contour>
  </outline>
</glyph>
<glyph name="three" format="1">
  <advance width="923"/>
  <unicode hex="0033"/>
  <outline>
    <contour>
      <point x="429" y="-34" type="curve" smooth="yes"/>
      <point x="680" y="-34"/>
      <point x="825" y="108"/>
      <point x="825" y="305" type="curve" smooth="yes"/>
      <point x="825" y="487"/>
      <point x="696" y="608"/>
      <point x="546" y="662" type="curve"/>
      <point x="672" y="704"/>
      <point x="797" y="802"/>
      <point x="797" y="954" type="curve" smooth="yes"/>
      <point x="797" y="1171"/>
      <point x="626" y="1275"/>
      <point x="437" y="1275" type="curve" smooth="yes"/>
      <point x="326" y="1275"/>
      <point x="194" y="1241"/>
      <point x="112" y="1187" type="curve"/>
      <point x="159" y="1067" type="line"/>
      <point x="234" y="1114"/>
      <point x="336" y="1143"/>
      <point x="419" y="1143" type="curve" smooth="yes"/>
      <point x="538" y="1143"/>
      <point x="645" y="1082"/>
      <point x="645" y="949" type="curve" smooth="yes"/>
      <point x="645" y="810"/>
      <point x="487" y="729"/>
      <point x="297" y="682" type="curve"/>
      <point x="297" y="627" type="line"/>
      <point x="568" y="558"/>
      <point x="667" y="460"/>
      <point x="667" y="311" type="curve" smooth="yes"/>
      <point x="667" y="182"/>
      <point x="562" y="100"/>
      <point x="427" y="100" type="curve" smooth="yes"/>
      <point x="343" y="100"/>
      <point x="244" y="123"/>
      <point x="151" y="171" type="curve"/>
      <point x="115" y="48" type="line"/>
      <point x="181" y="8"/>
      <point x="314" y="-34"/>
    </contour>
  </outline>
</glyph>
<glyph name="four" format="1">
  <advance width="1102"/>
  <unicode hex="0034"/>
  <outline>
    <contour>
      <point x="660" y="0" type="line"/>
      <point x="825" y="0" type="line"/>
      <point x="825" y="252" type="line"/>
      <point x="1015" y="252" type="line"/>
      <point x="1015" y="381" type="line"/>
      <point x="825" y="381" type="line"/>
      <point x="825" y="1257" type="line"/>
      <point x="63" y="252" type="line"/>
      <point x="660" y="252" type="line"/>
    </contour>
    <contour>
      <point x="319" y="381" type="line"/>
      <point x="660" y="862" type="line"/>
      <point x="660" y="381" type="line"/>
    </contour>
  </outline>
</glyph>
<glyph name="seven" format="1">
  <advance width="991"/>
  <unicode hex="0037"/>
  <outline>
    <contour>
      <point x="276" y="0" type="line"/>
      <point x="444" y="0" type="line"/>
      <point x="839" y="1117" type="line"/>
      <point x="839" y="1241" type="line"/>
      <point x="176" y="1241" type="line"/>
      <point x="176" y="1102" type="line"/>
      <point x="660" y="1102" type="line"/>
    </contour>
  </outline>
</glyph>
<glyph name="eight" format="1">
  <advance width="1155"/>
  <unicode hex="0038"/>
  <outline>
    <contour>
      <point x="590" y="-34" type="curve" smooth="yes"/>
      <point x="805" y="-34"/>
      <point x="979" y="85"/>
      <point x="979" y="303" type="curve" smooth="yes"/>
      <point x="979" y="438"/>
      <point x="908" y="571"/>
      <point x="708" y="660" type="curve"/>
      <point x="896" y="737"/>
      <point x="954" y="849"/>
      <point x="954" y="968" type="curve" smooth="yes"/>
      <point x="954" y="1137"/>
      <point x="817" y="1276"/>
      <point x="584" y="1276" type="curve" smooth="yes"/>
      <point x="361" y="1276"/>
      <point x="226" y="1129"/>
      <point x="226" y="964" type="curve" smooth="yes"/>
      <point x="226" y="842"/>
      <point x="318" y="727"/>
      <point x="453" y="654" type="curve"/>
      <point x="299" y="567"/>
      <point x="203" y="429"/>
      <point x="203" y="286" type="curve" smooth="yes"/>
      <point x="203" y="76"/>
      <point x="398" y="-34"/>
    </contour>
    <contour>
      <point x="563" y="712" type="curve"/>
      <point x="432" y="761"/>
      <point x="369" y="858"/>
      <point x="369" y="964" type="curve" smooth="yes"/>
      <point x="369" y="1077"/>
      <point x="462" y="1151"/>
      <point x="584" y="1151" type="curve" smooth="yes"/>
      <point x="707" y="1151"/>
      <point x="811" y="1076"/>
      <point x="811" y="963" type="curve" smooth="yes"/>
      <point x="811" y="860"/>
      <point x="749" y="783"/>
    </contour>
    <contour>
      <point x="584" y="92" type="curve" smooth="yes"/>
      <point x="463" y="92"/>
      <point x="357" y="166"/>
      <point x="357" y="303" type="curve" smooth="yes"/>
      <point x="357" y="436"/>
      <point x="435" y="546"/>
      <point x="580" y="600" type="curve"/>
      <point x="740" y="543"/>
      <point x="833" y="434"/>
      <point x="833" y="310" type="curve" smooth="yes"/>
      <point x="833" y="165"/>
      <point x="715" y="92"/>
    </contour>
  </outline>
</glyph>
<glyph name="nine" format="1">
  <advance width="1112"/>
  <unicode hex="0039"/>
  <outline>
    <contour>
      <point x="298" y="0" type="line"/>
      <point x="483" y="0" type="line"/>
      <point x="483" y="0"/>
      <point x="732" y="317"/>
      <point x="805" y="425" type="curve" smooth="yes"/>
      <point x="923" y="595"/>
      <point x="972" y="705"/>
      <point x="972" y="869" type="curve" smooth="yes"/>
      <point x="972" y="1096"/>
      <point x="817" y="1274"/>
      <point x="570" y="1274" type="curve" smooth="yes"/>
      <point x="336" y="1274"/>
      <point x="158" y="1108"/>
      <point x="158" y="878" type="curve" smooth="yes"/>
      <point x="158" y="646"/>
      <point x="345" y="500"/>
      <point x="539" y="500" type="curve" smooth="yes"/>
      <point x="591" y="500"/>
      <point x="664" y="515"/>
      <point x="706" y="543" type="curve"/>
    </contour>
    <contour>
      <point x="570" y="625" type="curve" smooth="yes"/>
      <point x="414" y="625"/>
      <point x="313" y="729"/>
      <point x="313" y="878" type="curve" smooth="yes"/>
      <point x="313" y="1021"/>
      <point x="417" y="1141"/>
      <point x="576" y="1141" type="curve" smooth="yes"/>
      <point x="736" y="1141"/>
      <point x="819" y="1025"/>
      <point x="819" y="884" type="curve" smooth="yes"/>
      <point x="819" y="744"/>
      <point x="740" y="625"/>
    </contour>
  </outline>
</glyph>
<glyph name="less" format="1">
  <advance width="997"/>
  <unicode hex="003C"/>
  <outline>
    <contour>
      <point x="925" y="-25" type="line"/>
      <point x="925" y="140" type="line"/>
      <point x="350" y="396" type="line"/>
      <point x="925" y="662" type="line"/>
      <point x="925" y="829" type="line"/>
      <point x="59" y="397" type="line"/>
    </contour>
  </outline>
</glyph>
<glyph name="equal" format="1">
  <advance width="987"/>
  <unicode hex="003D"/>
  <outline>
    <contour>
      <point x="167" y="385" type="line"/>
      <point x="811" y="385" type="line"/>
      <point x="811" y="494" type="line"/>
      <point x="167" y="494" type="line"/>
    </contour>
    <contour>
      <point x="167" y="647" type="line"/>
      <point x="811" y="647" type="line"/>
      <point x="811" y="756" type="line"/>
      <point x="167" y="756" type="line"/>
    </contour>
  </outline>
</glyph>
<glyph name="greater" format="1">
  <advance width="997"/>
  <unicode hex="003E"/>
  <outline>
    <contour>
      <point x="73" y="-25" type="line"/>
      <point x="939" y="407" type="line"/>
      <point x="73" y="829" type="line"/>
      <point x="73" y="664" type="line"/>
      <point x="648" y="408" type="line"/>
      <point x="73" y="142" type="line"/>
    </contour>
  </outline>
</glyph>
<glyph name="question" format="1">
  <advance width="906"/>
  <unicode hex="003F"/>
  <outline>
    <contour>
      <point x="246" y="361" type="curve"/>
      <point x="379" y="361" type="line"/>
      <point x="663" y="637"/>
      <point x="806" y="767"/>
      <point x="806" y="947" type="curve" smooth="yes"/>
      <point x="806" y="1158"/>
      <point x="648" y="1274"/>
      <point x="445" y="1274" type="curve" smooth="yes"/>
      <point x="297" y="1274"/>
      <point x="148" y="1200"/>
      <point x="98" y="1158" type="curve"/>
      <point x="160" y="1040" type="line"/>
      <point x="220" y="1085"/>
      <point x="326" y="1136"/>
      <point x="431" y="1136" type="curve" smooth="yes"/>
      <point x="541" y="1136"/>
      <point x="641" y="1075"/>
      <point x="641" y="942" type="curve" smooth="yes"/>
      <point x="641" y="809"/>
      <point x="567" y="720"/>
    </contour>
    <component base="period" xOffset="34"/>
  </outline>
</glyph>
<glyph name="at" format="1">
  <advance width="1410"/>
  <unicode hex="0040"/>
  <outline>
    <contour>
      <point x="707" y="-101" type="curve" smooth="yes"/>
      <point x="930" y="-101"/>
      <point x="1118" y="-13"/>
      <point x="1209" y="41" type="curve"/>
      <point x="1179" y="138" type="line"/>
      <point x="1090" y="86"/>
      <point x="916" y="8"/>
      <point x="720" y="8" type="curve" smooth="yes"/>
      <point x="402" y="8"/>
      <point x="173" y="188"/>
      <point x="173" y="522" type="curve" smooth="yes"/>
      <point x="173" y="781"/>
      <point x="319" y="1069"/>
      <point x="753" y="1069" type="curve" smooth="yes"/>
      <point x="999" y="1069"/>
      <point x="1203" y="920"/>
      <point x="1203" y="607" type="curve" smooth="yes"/>
      <point x="1203" y="394"/>
      <point x="1121" y="292"/>
      <point x="1028" y="292" type="curve" smooth="yes"/>
      <point x="948" y="292"/>
      <point x="943" y="378"/>
      <point x="943" y="471" type="curve" smooth="yes"/>
      <point x="943" y="901" type="line"/>
      <point x="902" y="905"/>
      <point x="860" y="907"/>
      <point x="825" y="907" type="curve" smooth="yes"/>
      <point x="372" y="907"/>
      <point x="351" y="586"/>
      <point x="357" y="482" type="curve" smooth="yes"/>
      <point x="365" y="343"/>
      <point x="458" y="203"/>
      <point x="613" y="203" type="curve" smooth="yes"/>
      <point x="673" y="203"/>
      <point x="764" y="229"/>
      <point x="828" y="351" type="curve"/>
      <point x="855" y="236"/>
      <point x="933" y="201"/>
      <point x="1017" y="201" type="curve" smooth="yes"/>
      <point x="1165" y="201"/>
      <point x="1328" y="339"/>
      <point x="1328" y="613" type="curve" smooth="yes"/>
      <point x="1328" y="906"/>
      <point x="1144" y="1180"/>
      <point x="749" y="1180" type="curve" smooth="yes"/>
      <point x="233" y="1180"/>
      <point x="47" y="829"/>
      <point x="47" y="522" type="curve" smooth="yes"/>
      <point x="47" y="121"/>
      <point x="354" y="-101"/>
    </contour>
    <contour>
      <point x="627" y="304" type="curve" smooth="yes"/>
      <point x="545" y="302"/>
      <point x="491" y="373"/>
      <point x="483" y="470" type="curve" smooth="yes"/>
      <point x="473" y="596"/>
      <point x="501" y="811"/>
      <point x="809" y="811" type="curve"/>
      <point x="809" y="423" type="line"/>
      <point x="773" y="365"/>
      <point x="708" y="305"/>
    </contour>
  </outline>
</glyph>
<glyph name="A" format="1">
  <advance width="1284"/>
  <unicode hex="0041"/>
  <outline>
    <contour>
      <point x="111" y="0" type="line"/>
      <point x="280" y="0" type="line"/>
      <point x="411" y="297" type="line"/>
      <point x="938" y="297" type="line"/>
      <point x="1074" y="0" type="line"/>
      <point x="1241" y="0" type="line"/>
      <point x="675" y="1270" type="line"/>
    </contour>
    <contour>
      <point x="453" y="409" type="line"/>
      <point x="675" y="953" type="line"/>
      <point x="905" y="409" type="line"/>
    </contour>
    <contour>
      <point x="642" y="1241" type="move" name="top"/>
    </contour>
    <contour>
      <point x="1156" y="10" type="move" name="ogonek"/>
    </contour>
  </outline>
</glyph>
<glyph name="C" format="1">
  <advance width="1287"/>
  <unicode hex="0043"/>
  <outline>
    <contour>
      <point x="770" y="-34" type="curve" smooth="yes"/>
      <point x="954" y="-34"/>
      <point x="1119" y="33"/>
      <point x="1174" y="59" type="curve"/>
      <point x="1174" y="208" type="line"/>
      <point x="1064" y="147"/>
      <point x="911" y="104"/>
      <point x="784" y="104" type="curve" smooth="yes"/>
      <point x="479" y="104"/>
      <point x="261" y="284"/>
      <point x="261" y="622" type="curve" smooth="yes"/>
      <point x="261" y="962"/>
      <point x="480" y="1136"/>
      <point x="778" y="1136" type="curve" smooth="yes"/>
      <point x="923" y="1136"/>
      <point x="1063" y="1089"/>
      <point x="1174" y="1028" type="curve"/>
      <point x="1174" y="1170" type="line"/>
      <point x="1122" y="1201"/>
      <point x="956" y="1274"/>
      <point x="772" y="1274" type="curve" smooth="yes"/>
      <point x="382" y="1274"/>
      <point x="95" y="1029"/>
      <point x="95" y="622" type="curve" smooth="yes"/>
      <point x="95" y="217"/>
      <point x="376" y="-34"/>
    </contour>
    <contour>
      <point x="644" y="1241" type="move" name="top"/>
    </contour>
    <contour>
      <point x="644" y="0" type="move" name="bottom"/>
    </contour>
  </outline>
</glyph>
<glyph name="D" format="1">
  <advance width="1399"/>
  <unicode hex="0044"/>
  <outline>
    <contour>
      <point x="156" y="0" type="line"/>
      <point x="645" y="0" type="line" smooth="yes"/>
      <point x="1068" y="0"/>
      <point x="1300" y="296"/>
      <point x="1300" y="628" type="curve" smooth="yes"/>
      <point x="1300" y="990"/>
      <point x="1086" y="1241"/>
      <point x="675" y="1241" type="curve" smooth="yes"/>
      <point x="156" y="1241" type="line"/>
    </contour>
    <contour>
      <point x="318" y="131" type="line"/>
      <point x="318" y="1110" type="line"/>
      <point x="672" y="1110" type="line" smooth="yes"/>
      <point x="952" y="1110"/>
      <point x="1134" y="953"/>
      <point x="1134" y="624" type="curve" smooth="yes"/>
      <point x="1134" y="337"/>
      <point x="938" y="131"/>
      <point x="624" y="131" type="curve" smooth="yes"/>
    </contour>
    <contour>
      <point x="699" y="1241" type="move" name="top"/>
    </contour>
    <contour>
      <point x="699" y="621" type="move" name="center"/>
    </contour>
  </outline>
</glyph>
<glyph name="E" format="1">
  <advance width="973"/>
  <unicode hex="0045"/>
  <outline>
    <contour>
      <point x="186" y="0" type="line"/>
      <point x="916" y="0" type="line"/>
      <point x="916" y="139" type="line"/>
      <point x="346" y="139" type="line"/>
      <point x="346" y="572" type="line"/>
      <point x="843" y="572" type="line"/>
      <point x="843" y="708" type="line"/>
      <point x="348" y="708" type="line"/>
      <point x="348" y="1104" type="line"/>
      <point x="906" y="1104" type="line"/>
      <point x="906" y="1241" type="line"/>
      <point x="186" y="1241" type="line"/>
    </contour>
    <contour>
      <point x="487" y="1241" type="move" name="top"/>
    </contour>
    <contour>
      <point x="876" y="10" type="move" name="ogonek"/>
    </contour>
    <contour>
      <point x="487" y="0" type="move" name="bottom"/>
    </contour>
  </outline>
</glyph>
<glyph name="H" format="1">
  <advance width="1338"/>
  <unicode hex="0048"/>
  <outline>
    <contour>
      <point x="156" y="0" type="line"/>
      <point x="321" y="0" type="line"/>
      <point x="321" y="585" type="line"/>
      <point x="1016" y="585" type="line"/>
      <point x="1016" y="0" type="line"/>
      <point x="1181" y="0" type="line"/>
      <point x="1181" y="1241" type="line"/>
      <point x="1016" y="1241" type="line"/>
      <point x="1016" y="721" type="line"/>
      <point x="321" y="721" type="line"/>
      <point x="321" y="1241" type="line"/>
      <point x="156" y="1241" type="line"/>
    </contour>
    <contour>
      <point x="669" y="1241" type="move" name="top"/>
    </contour>
    <contour>
      <point x="669" y="621" type="move" name="center"/>
    </contour>
  </outline>
</glyph>
<glyph name="J" format="1">
  <advance width="988"/>
  <unicode hex="004A"/>
  <outline>
    <contour>
      <point x="401" y="-19" type="curve" smooth="yes"/>
      <point x="676" y="-19"/>
      <point x="774" y="128"/>
      <point x="774" y="455" type="curve" smooth="yes"/>
      <point x="774" y="1242" type="line"/>
      <point x="613" y="1242" type="line"/>
      <point x="613" y="445" type="line" smooth="yes"/>
      <point x="613" y="193"/>
      <point x="537" y="111"/>
      <point x="395" y="111" type="curve" smooth="yes"/>
      <point x="314" y="111"/>
      <point x="232" y="143"/>
      <point x="154" y="179" type="curve"/>
      <point x="154" y="46" type="line"/>
      <point x="178" y="33"/>
      <point x="264" y="-19"/>
    </contour>
    <contour>
      <point x="494" y="1241" type="move" name="top"/>
    </contour>
  </outline>
</glyph>
<glyph name="L" format="1">
  <advance width="1009"/>
  <unicode hex="004C"/>
  <outline>
    <contour>
      <point x="186" y="0" type="line"/>
      <point x="883" y="0" type="line"/>
      <point x="883" y="139" type="line"/>
      <point x="351" y="139" type="line"/>
      <point x="351" y="1241" type="line"/>
      <point x="186" y="1241" type="line"/>
    </contour>
    <contour>
      <point x="505" y="1241" type="move" name="top"/>
    </contour>
    <contour>
      <point x="505" y="0" type="move" name="bottom"/>
    </contour>
  </outline>
</glyph>
<glyph name="M" format="1">
  <advance width="1688"/>
  <unicode hex="004D"/>
  <outline>
    <contour>
      <point x="844" y="17" type="line"/>
      <point x="1307" y="835" type="line"/>
      <point x="1437" y="0" type="line"/>
      <point x="1599" y="0" type="line"/>
      <point x="1391" y="1282" type="line"/>
      <point x="843" y="304" type="line"/>
      <point x="297" y="1282" type="line"/>
      <point x="88" y="0" type="line"/>
      <point x="251" y="0" type="line"/>
      <point x="380" y="835" type="line"/>
    </contour>
  </outline>
</glyph>
<glyph name="N" format="1">
  <advance width="1362"/>
  <unicode hex="004E"/>
  <outline>
    <contour>
      <point x="1205" y="-37" type="line"/>
      <point x="1205" y="1241" type="line"/>
      <point x="1040" y="1241" type="line"/>
      <point x="1040" y="339" type="line"/>
      <point x="156" y="1273" type="line"/>
      <point x="156" y="0" type="line"/>
      <point x="321" y="0" type="line"/>
      <point x="321" y="892" type="line"/>
    </contour>
    <contour>
      <point x="682" y="1241" type="move" name="top"/>
    </contour>
    <contour>
      <point x="682" y="0" type="move" name="bottom"/>
    </contour>
  </outline>
</glyph>
<glyph name="O" format="1">
  <advance width="1526"/>
  <unicode hex="004F"/>
  <outline>
    <contour>
      <point x="759" y="104" type="curve" smooth="yes"/>
      <point x="505" y="104"/>
      <point x="262" y="269"/>
      <point x="262" y="619" type="curve" smooth="yes"/>
      <point x="262" y="970"/>
      <point x="495" y="1137"/>
      <point x="760" y="1137" type="curve" smooth="yes"/>
      <point x="1022" y="1137"/>
      <point x="1260" y="970"/>
      <point x="1260" y="618" type="curve" smooth="yes"/>
      <point x="1260" y="270"/>
      <point x="1001" y="104"/>
    </contour>
    <contour>
      <point x="760" y="-34" type="curve" smooth="yes"/>
      <point x="1097" y="-34"/>
      <point x="1427" y="183"/>
      <point x="1427" y="623" type="curve" smooth="yes"/>
      <point x="1427" y="1058"/>
      <point x="1097" y="1274"/>
      <point x="759" y="1274" type="curve" smooth="yes"/>
      <point x="423" y="1274"/>
      <point x="95" y="1058"/>
      <point x="95" y="619" type="curve" smooth="yes"/>
      <point x="95" y="183"/>
      <point x="423" y="-34"/>
    </contour>
    <contour>
      <point x="763" y="1241" type="move" name="top"/>
    </contour>
  </outline>
</glyph>
<glyph name="P" format="1">
  <advance width="1063"/>
  <unicode hex="0050"/>
  <outline>
    <contour>
      <point x="201" y="0" type="line"/>
      <point x="365" y="0" type="line"/>
      <point x="365" y="519" type="line"/>
      <point x="518" y="519" type="line" smooth="yes"/>
      <point x="773" y="519"/>
      <point x="1005" y="585"/>
      <point x="1005" y="882" type="curve" smooth="yes"/>
      <point x="1005" y="1126"/>
      <point x="828" y="1242"/>
      <point x="531" y="1242" type="curve" smooth="yes"/>
      <point x="201" y="1242" type="line"/>
    </contour>
    <contour>
      <point x="364" y="632" type="line"/>
      <point x="364" y="1121" type="line"/>
      <point x="525" y="1121" type="line" smooth="yes"/>
      <point x="761" y="1121"/>
      <point x="845" y="1017"/>
      <point x="845" y="877" type="curve" smooth="yes"/>
      <point x="845" y="702"/>
      <point x="723" y="632"/>
      <point x="530" y="632" type="curve" smooth="yes"/>
    </contour>
  </outline>
</glyph>
<glyph name="Q" format="1">
  <advance width="1526"/>
  <unicode hex="0051"/>
  <outline>
    <contour>
      <point x="1249" y="-159" type="line"/>
      <point x="1372" y="-64" type="line"/>
      <point x="958" y="304" type="line"/>
      <point x="887" y="227" type="line"/>
    </contour>
    <component base="O"/>
  </outline>
</glyph>
<glyph name="R" format="1">
  <advance width="1082"/>
  <unicode hex="0052"/>
  <outline>
    <contour>
      <point x="201" y="0" type="line"/>
      <point x="365" y="0" type="line"/>
      <point x="365" y="564" type="line"/>
      <point x="399" y="564" type="line"/>
      <point x="863" y="0" type="line"/>
      <point x="1058" y="0" type="line"/>
      <point x="568" y="576" type="line"/>
      <point x="807" y="591"/>
      <point x="972" y="682"/>
      <point x="972" y="906" type="curve" smooth="yes"/>
      <point x="972" y="1135"/>
      <point x="793" y="1241"/>
      <point x="501" y="1241" type="curve" smooth="yes"/>
      <point x="201" y="1241" type="line"/>
    </contour>
    <contour>
      <point x="364" y="677" type="line"/>
      <point x="364" y="1121" type="line"/>
      <point x="495" y="1121" type="line" smooth="yes"/>
      <point x="728" y="1121"/>
      <point x="812" y="1041"/>
      <point x="812" y="901" type="curve" smooth="yes"/>
      <point x="812" y="725"/>
      <point x="666" y="677"/>
      <point x="460" y="677" type="curve" smooth="yes"/>
    </contour>
    <contour>
      <point x="541" y="1241" type="move" name="top"/>
    </contour>
    <contour>
      <point x="541" y="0" type="move" name="bottom"/>
    </contour>
  </outline>
</glyph>
<glyph name="S" format="1">
  <advance width="956"/>
  <unicode hex="0053"/>
  <outline>
    <contour>
      <point x="509" y="-34" type="curve" smooth="yes"/>
      <point x="700" y="-34"/>
      <point x="880" y="67"/>
      <point x="880" y="289" type="curve" smooth="yes"/>
      <point x="880" y="409"/>
      <point x="820" y="506"/>
      <point x="645" y="620" type="curve" smooth="yes"/>
      <point x="399" y="778" type="line" smooth="yes"/>
      <point x="315" y="833"/>
      <point x="261" y="893"/>
      <point x="261" y="966" type="curve" smooth="yes"/>
      <point x="261" y="1060"/>
      <point x="332" y="1139"/>
      <point x="504" y="1139" type="curve" smooth="yes"/>
      <point x="611" y="1139"/>
      <point x="744" y="1095"/>
      <point x="817" y="1056" type="curve"/>
      <point x="817" y="1199" type="line" smooth="yes"/>
      <point x="772" y="1222"/>
      <point x="648" y="1275"/>
      <point x="485" y="1275" type="curve" smooth="yes"/>
      <point x="231" y="1275"/>
      <point x="103" y="1130"/>
      <point x="103" y="959" type="curve" smooth="yes"/>
      <point x="103" y="845"/>
      <point x="182" y="745"/>
      <point x="299" y="671" type="curve" smooth="yes"/>
      <point x="565" y="500" type="line" smooth="yes"/>
      <point x="675" y="431"/>
      <point x="722" y="357"/>
      <point x="722" y="283" type="curve" smooth="yes"/>
      <point x="722" y="176"/>
      <point x="648" y="103"/>
      <point x="498" y="103" type="curve" smooth="yes"/>
      <point x="347" y="103"/>
      <point x="211" y="164"/>
      <point x="134" y="216" type="curve" smooth="yes"/>
      <point x="134" y="73" type="line" smooth="yes"/>
      <point x="177" y="47"/>
      <point x="298" y="-34"/>
    </contour>
    <contour>
      <point x="478" y="1241" type="move" name="top"/>
    </contour>
    <contour>
      <point x="478" y="0" type="move" name="bottom"/>
    </contour>
  </outline>
</glyph>
<glyph name="T" format="1">
  <advance width="1122"/>
  <unicode hex="0054"/>
  <outline>
    <contour>
      <point x="474" y="0" type="line"/>
      <point x="640" y="0" type="line"/>
      <point x="640" y="1102" type="line"/>
      <point x="1028" y="1102" type="line"/>
      <point x="1028" y="1241" type="line"/>
      <point x="86" y="1241" type="line"/>
      <point x="86" y="1102" type="line"/>
      <point x="474" y="1102" type="line"/>
    </contour>
    <contour>
      <point x="561" y="1241" type="move" name="top"/>
    </contour>
    <contour>
      <point x="561" y="621" type="move" name="center"/>
    </contour>
    <contour>
      <point x="561" y="0" type="move" name="bottom"/>
    </contour>
  </outline>
</glyph>
<glyph name="U" format="1">
  <advance width="1402"/>
  <unicode hex="0055"/>
  <outline>
    <contour>
      <point x="690" y="-33" type="curve" smooth="yes"/>
      <point x="1007" y="-33"/>
      <point x="1242" y="142"/>
      <point x="1242" y="493" type="curve" smooth="yes"/>
      <point x="1242" y="1241" type="line"/>
      <point x="1080" y="1241" type="line"/>
      <point x="1080" y="484" type="line" smooth="yes"/>
      <point x="1080" y="214"/>
      <point x="922" y="100"/>
      <point x="690" y="100" type="curve" smooth="yes"/>
      <point x="458" y="100"/>
      <point x="300" y="214"/>
      <point x="300" y="484" type="curve" smooth="yes"/>
      <point x="300" y="1241" type="line"/>
      <point x="138" y="1241" type="line"/>
      <point x="138" y="493" type="line" smooth="yes"/>
      <point x="138" y="142"/>
      <point x="373" y="-33"/>
    </contour>
    <contour>
      <point x="701" y="1241" type="move" name="top"/>
    </contour>
    <contour>
      <point x="1262" y="10" type="move" name="ogonek"/>
    </contour>
  </outline>
</glyph>
<glyph name="V" format="1">
  <advance width="1264"/>
  <unicode hex="0056"/>
  <outline>
    <contour>
      <point x="643" y="-26" type="line"/>
      <point x="1216" y="1241" type="line"/>
      <point x="1038" y="1241" type="line"/>
      <point x="642" y="327" type="line"/>
      <point x="219" y="1241" type="line"/>
      <point x="46" y="1241" type="line"/>
    </contour>
  </outline>
</glyph>
<glyph name="W" format="1">
  <advance width="1757"/>
  <unicode hex="0057"/>
  <outline>
    <contour>
      <point x="475" y="-28" type="line"/>
      <point x="807" y="850" type="line"/>
      <point x="1169" y="-27" type="line"/>
      <point x="1656" y="1241" type="line"/>
      <point x="1480" y="1241" type="line"/>
      <point x="1160" y="367" type="line"/>
      <point x="804" y="1240" type="line"/>
      <point x="473" y="367" type="line"/>
      <point x="126" y="1241" type="line"/>
      <point x="-44" y="1241" type="line"/>
    </contour>
    <contour>
      <point x="879" y="1241" type="move" name="top"/>
    </contour>
  </outline>
</glyph>
<glyph name="X" format="1">
  <advance width="1519"/>
  <unicode hex="0058"/>
  <outline>
    <contour>
      <point x="1299" y="0" type="line"/>
      <point x="1494" y="0" type="line"/>
      <point x="366" y="1241" type="line"/>
      <point x="180" y="1241" type="line"/>
    </contour>
    <contour>
      <point x="176" y="0" type="line"/>
      <point x="381" y="0" type="line"/>
      <point x="1442" y="1241" type="line"/>
      <point x="1242" y="1241" type="line"/>
    </contour>
  </outline>
</glyph>
<glyph name="Y" format="1">
  <advance width="1259"/>
  <unicode hex="0059"/>
  <outline>
    <contour>
      <point x="551" y="0" type="line"/>
      <point x="717" y="0" type="line"/>
      <point x="717" y="472" type="line"/>
      <point x="1137" y="1241" type="line"/>
      <point x="964" y="1241" type="line"/>
      <point x="636" y="616" type="line"/>
      <point x="283" y="1241" type="line"/>
      <point x="117" y="1241" type="line"/>
      <point x="551" y="476" type="line"/>
    </contour>
    <contour>
      <point x="630" y="1241" type="move" name="top"/>
    </contour>
  </outline>
</glyph>
<glyph name="Z" format="1">
  <advance width="1059"/>
  <unicode hex="005A"/>
  <outline>
    <contour>
      <point x="106" y="0" type="line"/>
      <point x="919" y="0" type="line"/>
      <point x="919" y="139" type="line"/>
      <point x="357" y="139" type="line"/>
      <point x="919" y="1241" type="line"/>
      <point x="138" y="1241" type="line"/>
      <point x="138" y="1102" type="line"/>
      <point x="677" y="1102" type="line"/>
    </contour>
    <contour>
      <point x="530" y="1241" type="move" name="top"/>
    </contour>
  </outline>
</glyph>
<glyph name="bracketleft" format="1">
  <advance width="791"/>
  <unicode hex="005B"/>
  <outline>
    <contour>
      <point x="202" y="0" type="line"/>
      <point x="646" y="0" type="line"/>
      <point x="646" y="129" type="line"/>
      <point x="367" y="129" type="line"/>
      <point x="367" y="1112" type="line"/>
      <point x="646" y="1112" type="line"/>
      <point x="646" y="1241" type="line"/>
      <point x="202" y="1241" type="line"/>
    </contour>
  </outline>
</glyph>
<glyph name="bracketright" format="1">
  <advance width="791"/>
  <unicode hex="005D"/>
  <outline>
    <contour>
      <point x="197" y="0" type="line"/>
      <point x="640" y="0" type="line"/>
      <point x="640" y="1241" type="line"/>
      <point x="197" y="1241" type="line"/>
      <point x="197" y="1112" type="line"/>
      <point x="475" y="1112" type="line"/>
      <point x="475" y="129" type="line"/>
      <point x="197" y="129" type="line"/>
    </contour>
  </outline>
</glyph>
<glyph name="underscore" format="1">
  <advance width="986"/>
  <unicode hex="005F"/>
  <outline>
    <contour>
      <point x="150" y="-125" type="line"/>
      <point x="848" y="-125" type="line"/>
      <point x="848" y="0" type="line"/>
      <point x="150" y="0" type="line"/>
    </contour>
  </outline>
</glyph>
<glyph name="a" format="1">
  <advance width="912"/>
  <unicode hex="0061"/>
  <outline>
    <contour>
      <point x="395" y="95" type="curve" smooth="yes"/>
      <point x="321" y="95"/>
      <point x="277" y="148"/>
      <point x="277" y="215" type="curve" smooth="yes"/>
      <point x="277" y="272"/>
      <point x="299" y="338"/>
      <point x="430" y="374" type="curve" smooth="yes"/>
      <point x="434" y="376"/>
      <point x="582" y="413"/>
      <point x="588" y="415" type="curve"/>
      <point x="588" y="185" type="line"/>
      <point x="544" y="137"/>
      <point x="472" y="95"/>
    </contour>
    <contour>
      <point x="365" y="-18" type="curve" smooth="yes"/>
      <point x="419" y="-18"/>
      <point x="516" y="-8"/>
      <point x="616" y="102" type="curve"/>
      <point x="630" y="77"/>
      <point x="691" y="-9"/>
      <point x="816" y="-9" type="curve" smooth="yes"/>
      <point x="815" y="-9"/>
      <point x="820" y="-9"/>
      <point x="824" y="-9" type="curve"/>
      <point x="861" y="120" type="line"/>
      <point x="846" y="120" type="line" smooth="yes"/>
      <point x="795" y="120"/>
      <point x="745" y="154"/>
      <point x="745" y="232" type="curve" smooth="yes"/>
      <point x="745" y="578" type="line" smooth="yes"/>
      <point x="745" y="773"/>
      <point x="590" y="853"/>
      <point x="444" y="853" type="curve" smooth="yes"/>
      <point x="292" y="853"/>
      <point x="169" y="793"/>
      <point x="125" y="767" type="curve"/>
      <point x="169" y="652" type="line"/>
      <point x="224" y="680"/>
      <point x="327" y="728"/>
      <point x="415" y="728" type="curve" smooth="yes"/>
      <point x="498" y="728"/>
      <point x="589" y="708"/>
      <point x="589" y="546" type="curve" smooth="yes"/>
      <point x="589" y="506" type="line"/>
      <point x="435" y="471" type="line" smooth="yes"/>
      <point x="155" y="408"/>
      <point x="120" y="283"/>
      <point x="120" y="201" type="curve" smooth="yes"/>
      <point x="120" y="68"/>
      <point x="230" y="-18"/>
    </contour>
    <contour>
      <point x="457" y="836" type="move" name="top"/>
    </contour>
    <contour>
      <point x="821" y="10" type="move" name="ogonek"/>
    </contour>
  </outline>
</glyph>
<glyph name="b" format="1">
  <advance width="1078"/>
  <unicode hex="0062"/>
  <outline>
    <contour>
      <point x="504" y="-17" type="curve" smooth="yes"/>
      <point x="794" y="-17"/>
      <point x="975" y="156"/>
      <point x="975" y="424" type="curve" smooth="yes"/>
      <point x="975" y="664"/>
      <point x="816" y="853"/>
      <point x="583" y="853" type="curve" smooth="yes"/>
      <point x="427" y="853"/>
      <point x="329" y="780"/>
      <point x="314" y="771" type="curve"/>
      <point x="314" y="1249" type="line"/>
      <point x="156" y="1224" type="line"/>
      <point x="156" y="45" type="line"/>
      <point x="286" y="4"/>
      <point x="405" y="-17"/>
    </contour>
    <contour>
      <point x="497" y="104" type="curve" smooth="yes"/>
      <point x="415" y="104"/>
      <point x="352" y="118"/>
      <point x="314" y="126" type="curve"/>
      <point x="314" y="655" type="line"/>
      <point x="325" y="659"/>
      <point x="449" y="729"/>
      <point x="557" y="729" type="curve" smooth="yes"/>
      <point x="744" y="729"/>
      <point x="819" y="574"/>
      <point x="819" y="413" type="curve" smooth="yes"/>
      <point x="819" y="208"/>
      <point x="683" y="104"/>
    </contour>
  </outline>
</glyph>
<glyph name="c" format="1">
  <advance width="908"/>
  <unicode hex="0063"/>
  <outline>
    <contour>
      <point x="572" y="-18" type="curve" smooth="yes"/>
      <point x="695" y="-18"/>
      <point x="780" y="26"/>
      <point x="816" y="46" type="curve"/>
      <point x="816" y="177" type="line"/>
      <point x="780" y="157"/>
      <point x="695" y="109"/>
      <point x="571" y="109" type="curve" smooth="yes"/>
      <point x="355" y="109"/>
      <point x="254" y="251"/>
      <point x="254" y="420" type="curve" smooth="yes"/>
      <point x="254" y="580"/>
      <point x="363" y="725"/>
      <point x="573" y="725" type="curve" smooth="yes"/>
      <point x="720" y="725"/>
      <point x="803" y="669"/>
      <point x="816" y="660" type="curve"/>
      <point x="816" y="792" type="line"/>
      <point x="798" y="803"/>
      <point x="710" y="853"/>
      <point x="568" y="853" type="curve" smooth="yes"/>
      <point x="297" y="853"/>
      <point x="102" y="678"/>
      <point x="102" y="419" type="curve" smooth="yes"/>
      <point x="102" y="164"/>
      <point x="284" y="-18"/>
    </contour>
    <contour>
      <point x="454" y="836" type="move" name="top"/>
    </contour>
    <contour>
      <point x="454" y="0" type="move" name="bottom"/>
    </contour>
  </outline>
</glyph>
<glyph name="e" format="1">
  <advance width="964"/>
  <unicode hex="0065"/>
  <outline>
    <contour>
      <point x="569" y="-17" type="curve" smooth="yes"/>
      <point x="694" y="-17"/>
      <point x="777" y="15"/>
      <point x="849" y="57" type="curve"/>
      <point x="849" y="185" type="line"/>
      <point x="787" y="149"/>
      <point x="709" y="105"/>
      <point x="572" y="105" type="curve" smooth="yes"/>
      <point x="410" y="105"/>
      <point x="272" y="185"/>
      <point x="254" y="388" type="curve"/>
      <point x="875" y="388" type="line"/>
      <point x="875" y="419" type="line" smooth="yes"/>
      <point x="875" y="647"/>
      <point x="765" y="853"/>
      <point x="504" y="853" type="curve" smooth="yes"/>
      <point x="278" y="853"/>
      <point x="102" y="674"/>
      <point x="102" y="433" type="curve" smooth="yes"/>
      <point x="102" y="132"/>
      <point x="313" y="-17"/>
    </contour>
    <contour>
      <point x="263" y="493" type="line"/>
      <point x="274" y="564"/>
      <point x="330" y="734"/>
      <point x="521" y="734" type="curve" smooth="yes"/>
      <point x="659" y="734"/>
      <point x="733" y="624"/>
      <point x="743" y="493" type="curve"/>
    </contour>
    <contour>
      <point x="482" y="836" type="move" name="top"/>
    </contour>
    <contour>
      <point x="868" y="10" type="move" name="ogonek"/>
    </contour>
    <contour>
      <point x="482" y="0" type="move" name="bottom"/>
    </contour>
  </outline>
</glyph>
<glyph name="f" format="1">
  <advance width="625"/>
  <unicode hex="0066"/>
  <outline>
    <contour>
      <point x="204" y="0" type="line"/>
      <point x="363" y="0" type="line"/>
      <point x="363" y="710" type="line"/>
      <point x="541" y="710" type="line"/>
      <point x="541" y="835" type="line"/>
      <point x="361" y="835" type="line"/>
      <point x="361" y="902" type="line" smooth="yes"/>
      <point x="361" y="1045"/>
      <point x="427" y="1087"/>
      <point x="509" y="1087" type="curve" smooth="yes"/>
      <point x="555" y="1087"/>
      <point x="602" y="1072"/>
      <point x="639" y="1062" type="curve"/>
      <point x="639" y="1193" type="line"/>
      <point x="596" y="1206"/>
      <point x="538" y="1221"/>
      <point x="482" y="1221" type="curve" smooth="yes"/>
      <point x="295" y="1221"/>
      <point x="201" y="1096"/>
      <point x="201" y="902" type="curve" smooth="yes"/>
      <point x="201" y="835" type="line"/>
      <point x="86" y="835" type="line"/>
      <point x="86" y="710" type="line"/>
      <point x="204" y="710" type="line"/>
    </contour>
  </outline>
</glyph>
<glyph name="i" format="1">
  <advance width="516"/>
  <unicode hex="0069"/>
  <outline>
    <contour>
      <point x="259" y="1045" type="curve" smooth="yes"/>
      <point x="326" y="1045"/>
      <point x="364" y="1096"/>
      <point x="364" y="1148" type="curve" smooth="yes"/>
      <point x="364" y="1198"/>
      <point x="326" y="1252"/>
      <point x="259" y="1252" type="curve" smooth="yes"/>
      <point x="190" y="1252"/>
      <point x="153" y="1199"/>
      <point x="153" y="1148" type="curve" smooth="yes"/>
      <point x="153" y="1096"/>
      <point x="190" y="1045"/>
    </contour>
    <contour>
      <point x="182" y="0" type="line"/>
      <point x="340" y="0" type="line"/>
      <point x="340" y="835" type="line"/>
      <point x="182" y="835" type="line"/>
    </contour>
  </outline>
</glyph>
<glyph name="l" format="1">
  <advance width="620"/>
  <unicode hex="006C"/>
  <outline>
    <contour>
      <point x="390" y="-18" type="curve" smooth="yes"/>
      <point x="481" y="-18"/>
      <point x="535" y="4"/>
      <point x="563" y="15" type="curve"/>
      <point x="563" y="134" type="line"/>
      <point x="538" y="125"/>
      <point x="477" y="108"/>
      <point x="420" y="108" type="curve" smooth="yes"/>
      <point x="347" y="108"/>
      <point x="314" y="146"/>
      <point x="314" y="257" type="curve" smooth="yes"/>
      <point x="314" y="1249" type="line"/>
      <point x="156" y="1223" type="line"/>
      <point x="156" y="229" type="line" smooth="yes"/>
      <point x="156" y="63"/>
      <point x="260" y="-18"/>
    </contour>
    <contour>
      <point x="311" y="836" type="move" name="top"/>
    </contour>
    <contour>
      <point x="600" y="836" type="move" name="topright"/>
    </contour>
    <contour>
      <point x="311" y="0" type="move" name="bottom"/>
    </contour>
  </outline>
</glyph>
<glyph name="n" format="1">
  <advance width="1113"/>
  <unicode hex="006E"/>
  <outline>
    <contour>
      <point x="156" y="0" type="line"/>
      <point x="316" y="0" type="line"/>
      <point x="316" y="592" type="line"/>
      <point x="322" y="603"/>
      <point x="442" y="731"/>
      <point x="612" y="731" type="curve" smooth="yes"/>
      <point x="744" y="731"/>
      <point x="816" y="683"/>
      <point x="816" y="559" type="curve" smooth="yes"/>
      <point x="816" y="0" type="line"/>
      <point x="976" y="0" type="line"/>
      <point x="976" y="580" type="line" smooth="yes"/>
      <point x="976" y="742"/>
      <point x="828" y="853"/>
      <point x="664" y="853" type="curve" smooth="yes"/>
      <point x="449" y="853"/>
      <point x="334" y="731"/>
      <point x="313" y="713" type="curve"/>
      <point x="313" y="835" type="line"/>
      <point x="156" y="835" type="line"/>
    </contour>
    <contour>
      <point x="557" y="836" type="move" name="top"/>
    </contour>
    <contour>
      <point x="557" y="0" type="move" name="bottom"/>
    </contour>
  </outline>
</glyph>
<glyph name="o" format="1">
  <advance width="1114"/>
  <unicode hex="006F"/>
  <outline>
    <contour>
      <point x="556" y="-18" type="curve" smooth="yes"/>
      <point x="316" y="-18"/>
      <point x="102" y="143"/>
      <point x="102" y="415" type="curve" smooth="yes"/>
      <point x="102" y="690"/>
      <point x="316" y="853"/>
      <point x="558" y="853" type="curve" smooth="yes"/>
      <point x="787" y="853"/>
      <point x="1012" y="690"/>
      <point x="1012" y="415" type="curve" smooth="yes"/>
      <point x="1012" y="144"/>
      <point x="798" y="-18"/>
    </contour>
    <contour>
      <point x="557" y="106" type="curve" smooth="yes"/>
      <point x="759" y="106"/>
      <point x="863" y="259"/>
      <point x="863" y="415" type="curve" smooth="yes"/>
      <point x="863" y="572"/>
      <point x="757" y="729"/>
      <point x="557" y="729" type="curve" smooth="yes"/>
      <point x="358" y="729"/>
      <point x="252" y="572"/>
      <point x="252" y="416" type="curve" smooth="yes"/>
      <point x="252" y="248"/>
      <point x="355" y="106"/>
    </contour>
    <contour>
      <point x="557" y="836" type="move" name="top"/>
    </contour>
  </outline>
</glyph>
<glyph name="t" format="1">
  <advance width="730"/>
  <unicode hex="0074"/>
  <outline>
    <contour>
      <point x="449" y="-18" type="curve" smooth="yes"/>
      <point x="575" y="-18"/>
      <point x="645" y="26"/>
      <point x="672" y="43" type="curve"/>
      <point x="672" y="160" type="line"/>
      <point x="640" y="146"/>
      <point x="565" y="107"/>
      <point x="475" y="107" type="curve" smooth="yes"/>
      <point x="407" y="107"/>
      <point x="350" y="128"/>
      <point x="350" y="226" type="curve" smooth="yes"/>
      <point x="350" y="712" type="line"/>
      <point x="627" y="712" type="line"/>
      <point x="627" y="835" type="line"/>
      <point x="350" y="835" type="line"/>
      <point x="350" y="1026" type="line"/>
      <point x="93" y="750" type="line"/>
      <point x="88" y="745"/>
      <point x="85" y="738"/>
      <point x="85" y="732" type="curve" smooth="yes"/>
      <point x="85" y="722"/>
      <point x="93" y="712"/>
      <point x="110" y="712" type="curve" smooth="yes"/>
      <point x="193" y="712" type="line"/>
      <point x="193" y="197" type="line" smooth="yes"/>
      <point x="193" y="58"/>
      <point x="313" y="-18"/>
    </contour>
    <contour>
      <point x="365" y="418" type="move" name="center"/>
    </contour>
    <contour>
      <point x="365" y="0" type="move" name="bottom"/>
    </contour>
  </outline>
</glyph>
<glyph name="u" format="1">
  <advance width="1115"/>
  <unicode hex="0075"/>
  <outline>
    <contour>
      <point x="461" y="-18" type="curve" smooth="yes"/>
      <point x="673" y="-18"/>
      <point x="781" y="105"/>
      <point x="802" y="123" type="curve"/>
      <point x="802" y="0" type="line"/>
      <point x="959" y="0" type="line"/>
      <point x="959" y="835" type="line"/>
      <point x="799" y="835" type="line"/>
      <point x="799" y="242" type="line"/>
      <point x="793" y="231"/>
      <point x="677" y="104"/>
      <point x="507" y="104" type="curve" smooth="yes"/>
      <point x="375" y="104"/>
      <point x="301" y="152"/>
      <point x="301" y="276" type="curve" smooth="yes"/>
      <point x="301" y="835" type="line"/>
      <point x="141" y="835" type="line"/>
      <point x="141" y="254" type="line" smooth="yes"/>
      <point x="141" y="95"/>
      <point x="283" y="-18"/>
    </contour>
    <contour>
      <point x="558" y="836" type="move" name="top"/>
    </contour>
    <contour>
      <point x="1003" y="10" type="move" name="ogonek"/>
    </contour>
  </outline>
</glyph>
<glyph name="v" format="1">
  <advance width="935"/>
  <unicode hex="0076"/>
  <outline>
    <contour>
      <point x="473" y="-31" type="line"/>
      <point x="894" y="835" type="line"/>
      <point x="730" y="835" type="line"/>
      <point x="473" y="260" type="line"/>
      <point x="207" y="835" type="line"/>
      <point x="41" y="835" type="line"/>
    </contour>
  </outline>
</glyph>
<glyph name="w" format="1">
  <advance width="1280"/>
  <unicode hex="0077"/>
  <outline>
    <contour>
      <point x="376" y="-19" type="line"/>
      <point x="645" y="577" type="line"/>
      <point x="910" y="-19" type="line"/>
      <point x="1242" y="835" type="line"/>
      <point x="1092" y="835" type="line"/>
      <point x="898" y="297" type="line"/>
      <point x="643" y="858" type="line"/>
      <point x="392" y="302" type="line"/>
      <point x="190" y="835" type="line"/>
      <point x="38" y="835" type="line"/>
    </contour>
    <contour>
      <point x="640" y="836" type="move" name="top"/>
    </contour>
  </outline>
</glyph>
<glyph name="y" format="1">
  <advance width="943"/>
  <unicode hex="0079"/>
  <outline>
    <contour>
      <point x="181" y="-244" type="line"/>
      <point x="351" y="-244" type="line"/>
      <point x="919" y="835" type="line"/>
      <point x="752" y="835" type="line"/>
      <point x="495" y="338" type="line"/>
      <point x="197" y="835" type="line"/>
      <point x="23" y="835" type="line"/>
      <point x="412" y="210" type="line"/>
    </contour>
    <contour>
      <point x="472" y="836" type="move" name="top"/>
    </contour>
  </outline>
</glyph>
<glyph name="bar" format="1">
  <advance width="491"/>
  <unicode hex="007C"/>
  <outline>
    <contour>
      <point x="147" y="-134" type="line"/>
      <point x="147" y="-134"/>
      <point x="305" y="-134"/>
      <point x="305" y="-133" type="curve" smooth="yes"/>
      <point x="305" y="1248" type="line"/>
      <point x="147" y="1248" type="line"/>
    </contour>
  </outline>
</glyph>
<glyph name="asciitilde" format="1">
  <advance width="989"/>
  <unicode hex="007E"/>
  <outline>
    <contour>
      <point x="690" y="614" type="curve" smooth="yes"/>
      <point x="794" y="614"/>
      <point x="866" y="671"/>
      <point x="867" y="836" type="curve"/>
      <point x="763" y="836" type="line"/>
      <point x="760" y="773"/>
      <point x="731" y="735"/>
      <point x="685" y="735" type="curve" smooth="yes"/>
      <point x="597" y="735"/>
      <point x="437" y="850"/>
      <point x="305" y="850" type="curve" smooth="yes"/>
      <point x="209" y="850"/>
      <point x="124" y="791"/>
      <point x="123" y="628" type="curve"/>
      <point x="227" y="628" type="line"/>
      <point x="230" y="701"/>
      <point x="262" y="732"/>
      <point x="315" y="732" type="curve" smooth="yes"/>
      <point x="391" y="732"/>
      <point x="579" y="614"/>
    </contour>
  </outline>
</glyph>
<glyph name="cent" format="1">
  <advance width="953"/>
  <unicode hex="00A2"/>
  <outline>
    <contour>
      <point x="359" y="-198" type="line"/>
      <point x="433" y="-198" type="line"/>
      <point x="686" y="1016" type="line"/>
      <point x="609" y="1016" type="line"/>
    </contour>
    <component base="c"/>
  </outline>
</glyph>
<glyph name="sterling" format="1">
  <advance width="1025"/>
  <unicode hex="00A3"/>
  <outline>
    <contour>
      <point x="652" y="-24" type="curve" smooth="yes"/>
      <point x="817" y="-24"/>
      <point x="956" y="71"/>
      <point x="956" y="276" type="curve"/>
      <point x="811" y="276" type="line"/>
      <point x="811" y="169"/>
      <point x="742" y="108"/>
      <point x="641" y="108" type="curve" smooth="yes"/>
      <point x="541" y="108"/>
      <point x="443" y="160"/>
      <point x="390" y="230" type="curve"/>
      <point x="417" y="299"/>
      <point x="429" y="364"/>
      <point x="429" y="425" type="curve" smooth="yes"/>
      <point x="429" y="469"/>
      <point x="422" y="514"/>
      <point x="412" y="560" type="curve"/>
      <point x="655" y="560" type="line"/>
      <point x="655" y="677" type="line"/>
      <point x="375" y="677" type="line"/>
      <point x="346" y="767"/>
      <point x="315" y="852"/>
      <point x="315" y="917" type="curve" smooth="yes"/>
      <point x="315" y="1065"/>
      <point x="437" y="1138"/>
      <point x="549" y="1138" type="curve" smooth="yes"/>
      <point x="672" y="1138"/>
      <point x="748" y="1058"/>
      <point x="777" y="1034" type="curve"/>
      <point x="853" y="1142" type="line"/>
      <point x="802" y="1198"/>
      <point x="682" y="1274"/>
      <point x="538" y="1274" type="curve" smooth="yes"/>
      <point x="350" y="1274"/>
      <point x="154" y="1165"/>
      <point x="154" y="921" type="curve" smooth="yes"/>
      <point x="154" y="855"/>
      <point x="186" y="769"/>
      <point x="216" y="677" type="curve"/>
      <point x="108" y="677" type="line"/>
      <point x="108" y="560" type="line"/>
      <point x="252" y="560" type="line"/>
      <point x="263" y="514"/>
      <point x="270" y="469"/>
      <point x="270" y="425" type="curve" smooth="yes"/>
      <point x="270" y="307"/>
      <point x="218" y="169"/>
      <point x="91" y="0" type="curve"/>
      <point x="260" y="0" type="line"/>
      <point x="288" y="38"/>
      <point x="311" y="75"/>
      <point x="331" y="112" type="curve"/>
      <point x="417" y="28"/>
      <point x="538" y="-24"/>
    </contour>
  </outline>
</glyph>
<glyph name="yen" format="1">
  <advance width="1223"/>
  <unicode hex="00A5"/>
  <outline>
    <contour>
      <point x="536" y="0" type="line"/>
      <point x="701" y="0" type="line"/>
      <point x="701" y="420" type="line"/>
      <point x="970" y="420" type="line"/>
      <point x="970" y="528" type="line"/>
      <point x="732" y="528" type="line"/>
      <point x="797" y="647" type="line"/>
      <point x="1003" y="647" type="line"/>
      <point x="1003" y="756" type="line"/>
      <point x="856" y="756" type="line"/>
      <point x="1121" y="1241" type="line"/>
      <point x="949" y="1241" type="line"/>
      <point x="620" y="616" type="line"/>
      <point x="267" y="1241" type="line"/>
      <point x="101" y="1241" type="line"/>
      <point x="376" y="756" type="line"/>
      <point x="224" y="756" type="line"/>
      <point x="224" y="647" type="line"/>
      <point x="438" y="647" type="line"/>
      <point x="505" y="528" type="line"/>
      <point x="258" y="528" type="line"/>
      <point x="258" y="420" type="line"/>
      <point x="536" y="420" type="line"/>
    </contour>
  </outline>
</glyph>
<glyph name="brokenbar" format="1">
  <advance width="491"/>
  <unicode hex="00A6"/>
  <outline>
    <contour>
      <point x="167" y="-133" type="line"/>
      <point x="167" y="-133"/>
      <point x="325" y="-134"/>
      <point x="325" y="-133" type="curve" smooth="yes"/>
      <point x="325" y="418" type="line"/>
      <point x="167" y="418" type="line"/>
    </contour>
    <contour>
      <point x="167" y="689" type="line"/>
      <point x="167" y="689"/>
      <point x="325" y="689"/>
      <point x="325" y="690" type="curve" smooth="yes"/>
      <point x="325" y="1248" type="line"/>
      <point x="167" y="1248" type="line"/>
    </contour>
  </outline>
</glyph>
<glyph name="section" format="1">
  <advance width="854"/>
  <unicode hex="00A7"/>
  <outline>
    <contour>
      <point x="471" y="25" type="curve" smooth="yes"/>
      <point x="657" y="25"/>
      <point x="735" y="138"/>
      <point x="735" y="248" type="curve" smooth="yes"/>
      <point x="735" y="312"/>
      <point x="705" y="382"/>
      <point x="607" y="440" type="curve"/>
      <point x="698" y="476"/>
      <point x="738" y="551"/>
      <point x="738" y="629" type="curve" smooth="yes"/>
      <point x="738" y="696"/>
      <point x="707" y="770"/>
      <point x="598" y="829" type="curve" smooth="yes"/>
      <point x="370" y="953" type="line" smooth="yes"/>
      <point x="313" y="983"/>
      <point x="290" y="1010"/>
      <point x="290" y="1059" type="curve" smooth="yes"/>
      <point x="290" y="1114"/>
      <point x="344" y="1155"/>
      <point x="435" y="1155" type="curve" smooth="yes"/>
      <point x="535" y="1155"/>
      <point x="623" y="1115"/>
      <point x="669" y="1097" type="curve" smooth="yes"/>
      <point x="700" y="1208" type="line"/>
      <point x="658" y="1228"/>
      <point x="558" y="1273"/>
      <point x="425" y="1273" type="curve" smooth="yes"/>
      <point x="235" y="1273"/>
      <point x="143" y="1164"/>
      <point x="143" y="1054" type="curve" smooth="yes"/>
      <point x="143" y="985"/>
      <point x="175" y="914"/>
      <point x="282" y="853" type="curve"/>
      <point x="186" y="818"/>
      <point x="140" y="751"/>
      <point x="140" y="676" type="curve" smooth="yes"/>
      <point x="140" y="606"/>
      <point x="171" y="533"/>
      <point x="286" y="471" type="curve"/>
      <point x="503" y="352" type="line" smooth="yes"/>
      <point x="565" y="319"/>
      <point x="587" y="289"/>
      <point x="587" y="245" type="curve" smooth="yes"/>
      <point x="587" y="185"/>
      <point x="538" y="146"/>
      <point x="462" y="146" type="curve" smooth="yes"/>
      <point x="369" y="146"/>
      <point x="211" y="194"/>
      <point x="136" y="241" type="curve"/>
      <point x="119" y="121" type="line"/>
      <point x="159" y="95"/>
      <point x="288" y="25"/>
    </contour>
    <contour>
      <point x="492" y="504" type="curve"/>
      <point x="352" y="582" type="line" smooth="yes"/>
      <point x="294" y="613"/>
      <point x="272" y="639"/>
      <point x="272" y="688" type="curve" smooth="yes"/>
      <point x="272" y="739"/>
      <point x="320" y="781"/>
      <point x="403" y="786" type="curve"/>
      <point x="524" y="719" type="line" smooth="yes"/>
      <point x="586" y="687"/>
      <point x="607" y="655"/>
      <point x="607" y="612" type="curve" smooth="yes"/>
      <point x="607" y="555"/>
      <point x="563" y="509"/>
    </contour>
  </outline>
</glyph>
<glyph name="dieresis" format="1">
  <advance width="859"/>
  <unicode hex="00A8"/>
  <outline>
    <contour>
      <point x="611" y="111" type="curve" smooth="yes"/>
      <point x="676" y="111"/>
      <point x="712" y="161"/>
      <point x="712" y="211" type="curve" smooth="yes"/>
      <point x="712" y="259"/>
      <point x="676" y="311"/>
      <point x="611" y="311" type="curve" smooth="yes"/>
      <point x="545" y="311"/>
      <point x="509" y="260"/>
      <point x="509" y="211" type="curve" smooth="yes"/>
      <point x="509" y="161"/>
      <point x="545" y="111"/>
    </contour>
    <contour>
      <point x="250" y="111" type="curve" smooth="yes"/>
      <point x="315" y="111"/>
      <point x="351" y="161"/>
      <point x="351" y="211" type="curve" smooth="yes"/>
      <point x="351" y="259"/>
      <point x="315" y="311"/>
      <point x="250" y="311" type="curve" smooth="yes"/>
      <point x="184" y="311"/>
      <point x="148" y="260"/>
      <point x="148" y="211" type="curve" smooth="yes"/>
      <point x="148" y="161"/>
      <point x="184" y="111"/>
    </contour>
    <contour>
      <point x="430" y="836" type="move" name="_top"/>
    </contour>
  </outline>
</glyph>
<glyph name="copyright" format="1">
  <advance width="1570"/>
  <unicode hex="00A9"/>
  <outline>
    <contour>
      <point x="787" y="1" type="curve" smooth="yes"/>
      <point x="474" y="1"/>
      <point x="172" y="195"/>
      <point x="172" y="619" type="curve" smooth="yes"/>
      <point x="172" y="1039"/>
      <point x="462" y="1239"/>
      <point x="787" y="1239" type="curve" smooth="yes"/>
      <point x="1110" y="1239"/>
      <point x="1405" y="1045"/>
      <point x="1405" y="619" type="curve" smooth="yes"/>
      <point x="1405" y="195"/>
      <point x="1086" y="1"/>
    </contour>
    <contour>
      <point x="788" y="-99" type="curve" smooth="yes"/>
      <point x="1158" y="-99"/>
      <point x="1521" y="139"/>
      <point x="1521" y="623" type="curve" smooth="yes"/>
      <point x="1521" y="1101"/>
      <point x="1158" y="1339"/>
      <point x="787" y="1339" type="curve" smooth="yes"/>
      <point x="417" y="1339"/>
      <point x="55" y="1102"/>
      <point x="55" y="619" type="curve" smooth="yes"/>
      <point x="55" y="139"/>
      <point x="417" y="-99"/>
    </contour>
    <contour>
      <point x="798" y="138" type="curve" smooth="yes"/>
      <point x="914" y="138"/>
      <point x="1031" y="176"/>
      <point x="1118" y="224" type="curve"/>
      <point x="1118" y="348" type="line"/>
      <point x="1021" y="283"/>
      <point x="910" y="250"/>
      <point x="806" y="250" type="curve" smooth="yes"/>
      <point x="608" y="250"/>
      <point x="438" y="371"/>
      <point x="438" y="620" type="curve" smooth="yes"/>
      <point x="438" y="868"/>
      <point x="614" y="998"/>
      <point x="816" y="998" type="curve" smooth="yes"/>
      <point x="917" y="998"/>
      <point x="1023" y="966"/>
      <point x="1118" y="903" type="curve"/>
      <point x="1118" y="1023" type="line"/>
      <point x="1037" y="1071"/>
      <point x="924" y="1110"/>
      <point x="810" y="1110" type="curve" smooth="yes"/>
      <point x="517" y="1110"/>
      <point x="300" y="919"/>
      <point x="300" y="623" type="curve" smooth="yes"/>
      <point x="300" y="332"/>
      <point x="522" y="138"/>
    </contour>
  </outline>
</glyph>
<glyph name="guillemotleft" format="1">
  <advance width="817"/>
  <unicode hex="00AB"/>
  <outline>
    <contour>
      <point x="719" y="189" type="curve" smooth="yes"/>
      <point x="736" y="189"/>
      <point x="748" y="201"/>
      <point x="748" y="215" type="curve" smooth="yes"/>
      <point x="748" y="224"/>
      <point x="741" y="233"/>
      <point x="731" y="245" type="curve"/>
      <point x="553" y="503" type="line"/>
      <point x="731" y="762" type="line"/>
      <point x="741" y="773"/>
      <point x="748" y="782"/>
      <point x="748" y="792" type="curve" smooth="yes"/>
      <point x="748" y="806"/>
      <point x="736" y="818"/>
      <point x="719" y="818" type="curve" smooth="yes"/>
      <point x="713" y="818"/>
      <point x="705" y="817"/>
      <point x="696" y="813" type="curve"/>
      <point x="431" y="592" type="line"/>
      <point x="394" y="568"/>
      <point x="374" y="535"/>
      <point x="374" y="503" type="curve" smooth="yes"/>
      <point x="374" y="471"/>
      <point x="393" y="439"/>
      <point x="431" y="414" type="curve"/>
      <point x="696" y="194" type="line"/>
      <point x="705" y="190"/>
      <point x="713" y="189"/>
    </contour>
    <contour>
      <point x="411" y="189" type="curve" smooth="yes"/>
      <point x="428" y="189"/>
      <point x="440" y="201"/>
      <point x="440" y="215" type="curve" smooth="yes"/>
      <point x="440" y="224"/>
      <point x="434" y="233"/>
      <point x="424" y="245" type="curve"/>
      <point x="245" y="503" type="line"/>
      <point x="424" y="762" type="line"/>
      <point x="434" y="773"/>
      <point x="440" y="782"/>
      <point x="440" y="792" type="curve" smooth="yes"/>
      <point x="440" y="806"/>
      <point x="428" y="818"/>
      <point x="411" y="818" type="curve" smooth="yes"/>
      <point x="405" y="818"/>
      <point x="397" y="817"/>
      <point x="388" y="813" type="curve"/>
      <point x="123" y="592" type="line"/>
      <point x="86" y="568"/>
      <point x="67" y="535"/>
      <point x="67" y="503" type="curve" smooth="yes"/>
      <point x="67" y="471"/>
      <point x="85" y="439"/>
      <point x="123" y="414" type="curve"/>
      <point x="388" y="194" type="line"/>
      <point x="397" y="190"/>
      <point x="405" y="189"/>
    </contour>
  </outline>
</glyph>
<glyph name="logicalnot" format="1">
  <advance width="918"/>
  <unicode hex="00AC"/>
  <outline>
    <contour>
      <point x="656" y="425" type="line"/>
      <point x="770" y="425" type="line"/>
      <point x="770" y="824" type="line"/>
      <point x="139" y="824" type="line"/>
      <point x="139" y="710" type="line"/>
      <point x="656" y="710" type="line"/>
    </contour>
  </outline>
</glyph>
<glyph name="uni00AD" format="1">
  <advance width="938"/>
  <unicode hex="00AD"/>
  <outline>
    <contour>
      <point x="153" y="710" type="line"/>
      <point x="784" y="710" type="line"/>
      <point x="785" y="824" type="line"/>
      <point x="153" y="824" type="line"/>
    </contour>
  </outline>
</glyph>
<glyph name="registered" format="1">
  <advance width="1578"/>
  <unicode hex="00AE"/>
  <outline>
    <contour>
      <point x="492" y="161" type="line"/>
      <point x="617" y="161" type="line"/>
      <point x="617" y="573" type="line"/>
      <point x="643" y="573" type="line"/>
      <point x="982" y="161" type="line"/>
      <point x="1139" y="161" type="line"/>
      <point x="780" y="581" type="line"/>
      <point x="961" y="593"/>
      <point x="1087" y="659"/>
      <point x="1087" y="828" type="curve" smooth="yes"/>
      <point x="1087" y="1001"/>
      <point x="941" y="1076"/>
      <point x="720" y="1076" type="curve" smooth="yes"/>
      <point x="492" y="1076" type="line"/>
    </contour>
    <contour>
      <point x="617" y="663" type="line"/>
      <point x="617" y="980" type="line"/>
      <point x="716" y="980" type="line" smooth="yes"/>
      <point x="893" y="980"/>
      <point x="962" y="931"/>
      <point x="962" y="824" type="curve" smooth="yes"/>
      <point x="962" y="691"/>
      <point x="846" y="663"/>
      <point x="690" y="663" type="curve" smooth="yes"/>
    </contour>
    <contour>
      <point x="791" y="-1" type="curve" smooth="yes"/>
      <point x="478" y="-1"/>
      <point x="176" y="195"/>
      <point x="176" y="619" type="curve" smooth="yes"/>
      <point x="176" y="1039"/>
      <point x="466" y="1241"/>
      <point x="791" y="1241" type="curve" smooth="yes"/>
      <point x="1115" y="1241"/>
      <point x="1409" y="1045"/>
      <point x="1409" y="619" type="curve" smooth="yes"/>
      <point x="1409" y="195"/>
      <point x="1090" y="-1"/>
    </contour>
    <contour>
      <point x="792" y="-99" type="curve" smooth="yes"/>
      <point x="1163" y="-99"/>
      <point x="1529" y="139"/>
      <point x="1529" y="623" type="curve" smooth="yes"/>
      <point x="1529" y="1101"/>
      <point x="1163" y="1339"/>
      <point x="791" y="1339" type="curve" smooth="yes"/>
      <point x="421" y="1339"/>
      <point x="55" y="1102"/>
      <point x="55" y="619" type="curve" smooth="yes"/>
      <point x="55" y="139"/>
      <point x="421" y="-99"/>
    </contour>
  </outline>
</glyph>
<glyph name="macron" format="1">
  <advance width="987"/>
  <unicode hex="00AF"/>
  <outline>
    <component base="minus" xOffset="-93"/>
    <contour>
      <point x="7" y="836" type="move" name="_top"/>
    </contour>
  </outline>
</glyph>
<glyph name="plusminus" format="1">
  <advance width="984"/>
  <unicode hex="00B1"/>
  <outline>
    <contour>
      <point x="432" y="380" type="line"/>
      <point x="541" y="380" type="line"/>
      <point x="541" y="647" type="line"/>
      <point x="809" y="647" type="line"/>
      <point x="809" y="756" type="line"/>
      <point x="541" y="756" type="line"/>
      <point x="541" y="1024" type="line"/>
      <point x="432" y="1024" type="line"/>
      <point x="432" y="756" type="line"/>
      <point x="165" y="756" type="line"/>
      <point x="165" y="647" type="line"/>
      <point x="432" y="647" type="line"/>
    </contour>
    <contour>
      <point x="165" y="127" type="line"/>
      <point x="809" y="127" type="line"/>
      <point x="809" y="235" type="line"/>
      <point x="165" y="235" type="line"/>
    </contour>
  </outline>
</glyph>
<glyph name="paragraph" format="1">
  <advance width="1035"/>
  <unicode hex="00B6"/>
  <outline>
    <contour>
      <point x="530" y="0" type="line"/>
      <point x="663" y="0" type="line"/>
      <point x="663" y="1135" type="line"/>
      <point x="759" y="1135" type="line"/>
      <point x="759" y="0" type="line"/>
      <point x="892" y="0" type="line"/>
      <point x="892" y="1241" type="line"/>
      <point x="595" y="1241" type="line" smooth="yes"/>
      <point x="319" y="1241"/>
      <point x="125" y="1199"/>
      <point x="125" y="945" type="curve" smooth="yes"/>
      <point x="125" y="689"/>
      <point x="304" y="629"/>
      <point x="501" y="625" type="curve" smooth="yes"/>
      <point x="522" y="625"/>
      <point x="523" y="625"/>
      <point x="530" y="625" type="curve"/>
    </contour>
  </outline>
</glyph>
<glyph name="cedilla" format="1">
  <advance width="451"/>
  <unicode hex="00B8"/>
  <outline>
    <contour>
      <point x="334" y="-357" type="curve"/>
      <point x="344" y="-304" type="line"/>
      <point x="277" y="-286"/>
      <point x="216" y="-229"/>
      <point x="216" y="-181" type="curve" smooth="yes"/>
      <point x="216" y="-149"/>
      <point x="243" y="-122"/>
      <point x="313" y="-113" type="curve"/>
      <point x="313" y="0" type="line"/>
      <point x="248" y="0" type="line"/>
      <point x="248" y="-71" type="line"/>
      <point x="149" y="-99"/>
      <point x="112" y="-147"/>
      <point x="112" y="-196" type="curve" smooth="yes"/>
      <point x="112" y="-275"/>
      <point x="220" y="-357"/>
    </contour>
    <contour>
      <point x="228" y="0" type="move" name="_bottom"/>
    </contour>
  </outline>
</glyph>
<glyph name="questiondown" format="1">
  <advance width="934"/>
  <unicode hex="00BF"/>
  <outline>
    <contour>
      <point x="475" y="-434" type="curve" smooth="yes"/>
      <point x="623" y="-434"/>
      <point x="772" y="-360"/>
      <point x="821" y="-317" type="curve"/>
      <point x="760" y="-200" type="line"/>
      <point x="700" y="-244"/>
      <point x="594" y="-296"/>
      <point x="488" y="-296" type="curve" smooth="yes"/>
      <point x="379" y="-296"/>
      <point x="278" y="-234"/>
      <point x="278" y="-101" type="curve" smooth="yes"/>
      <point x="278" y="32"/>
      <point x="352" y="121"/>
      <point x="673" y="479" type="curve"/>
      <point x="541" y="479" type="line"/>
      <point x="257" y="204"/>
      <point x="114" y="73"/>
      <point x="114" y="-107" type="curve" smooth="yes"/>
      <point x="114" y="-318"/>
      <point x="272" y="-434"/>
    </contour>
    <component base="period" xOffset="886" yOffset="841" xScale="-1" yScale="-1"/>
  </outline>
</glyph>
<glyph name="multiply" format="1">
  <advance width="784"/>
  <unicode hex="00D7"/>
  <outline>
    <contour>
      <point x="236" y="355" type="line"/>
      <point x="397" y="516" type="line"/>
      <point x="558" y="355" type="line"/>
      <point x="638" y="436" type="line"/>
      <point x="478" y="596" type="line"/>
      <point x="639" y="758" type="line"/>
      <point x="558" y="838" type="line"/>
      <point x="397" y="677" type="line"/>
      <point x="236" y="838" type="line"/>
      <point x="155" y="758" type="line"/>
      <point x="316" y="596" type="line"/>
      <point x="156" y="436" type="line"/>
    </contour>
  </outline>
</glyph>
<glyph name="Thorn" format="1">
  <advance width="1063"/>
  <unicode hex="00DE"/>
  <outline>
    <contour>
      <point x="201" y="0" type="line"/>
      <point x="365" y="0" type="line"/>
      <point x="365" y="290" type="line"/>
      <point x="518" y="290" type="line" smooth="yes"/>
      <point x="773" y="290"/>
      <point x="1005" y="356"/>
      <point x="1005" y="653" type="curve" smooth="yes"/>
      <point x="1005" y="897"/>
      <point x="828" y="1012"/>
      <point x="531" y="1012" type="curve" smooth="yes"/>
      <point x="364" y="1012" type="line"/>
      <point x="364" y="1241" type="line"/>
      <point x="201" y="1241" type="line"/>
    </contour>
    <contour>
      <point x="364" y="403" type="line"/>
      <point x="364" y="891" type="line"/>
      <point x="525" y="891" type="line" smooth="yes"/>
      <point x="762" y="891"/>
      <point x="845" y="788"/>
      <point x="845" y="648" type="curve" smooth="yes"/>
      <point x="845" y="472"/>
      <point x="725" y="403"/>
      <point x="533" y="403" type="curve" smooth="yes"/>
    </contour>
  </outline>
</glyph>
<glyph name="eth" format="1">
  <advance width="995"/>
  <unicode hex="00F0"/>
  <outline>
    <contour>
      <point x="491" y="-18" type="curve" smooth="yes"/>
      <point x="738" y="-18"/>
      <point x="910" y="161"/>
      <point x="910" y="387" type="curve" smooth="yes"/>
      <point x="910" y="551"/>
      <point x="846" y="662"/>
      <point x="728" y="832" type="curve" smooth="yes"/>
      <point x="655" y="940"/>
      <point x="404" y="1241"/>
      <point x="404" y="1241" type="curve"/>
      <point x="236" y="1241" type="line"/>
      <point x="632" y="732" type="line"/>
      <point x="603" y="751"/>
      <point x="539" y="776"/>
      <point x="461" y="776" type="curve" smooth="yes"/>
      <point x="267" y="776"/>
      <point x="72" y="613"/>
      <point x="72" y="381" type="curve" smooth="yes"/>
      <point x="72" y="151"/>
      <point x="257" y="-18"/>
    </contour>
    <contour>
      <point x="498" y="106" type="curve" smooth="yes"/>
      <point x="338" y="106"/>
      <point x="220" y="234"/>
      <point x="220" y="379" type="curve" smooth="yes"/>
      <point x="220" y="532"/>
      <point x="335" y="652"/>
      <point x="491" y="652" type="curve" smooth="yes"/>
      <point x="662" y="652"/>
      <point x="756" y="515"/>
      <point x="756" y="373" type="curve" smooth="yes"/>
      <point x="756" y="231"/>
      <point x="657" y="106"/>
    </contour>
    <contour>
      <point x="279" y="878" type="line"/>
      <point x="731" y="1190" type="line"/>
      <point x="680" y="1254" type="line"/>
      <point x="228" y="942" type="line"/>
    </contour>
  </outline>
</glyph>
<glyph name="oslash" format="1">
  <advance width="1146"/>
  <unicode hex="00F8"/>
  <outline>
    <contour>
      <point x="267" y="-80" type="line"/>
      <point x="211" y="-41" type="line"/>
      <point x="867" y="916" type="line"/>
      <point x="923" y="877" type="line"/>
    </contour>
    <component base="o"/>
    <contour>
      <point x="573" y="836" type="move" name="top"/>
    </contour>
  </outline>
</glyph>
<glyph name="dotlessi" format="1">
  <advance width="516"/>
  <unicode hex="0131"/>
  <outline>
    <contour>
      <point x="182" y="0" type="line"/>
      <point x="340" y="0" type="line"/>
      <point x="340" y="835" type="line"/>
      <point x="182" y="835" type="line"/>
    </contour>
    <contour>
      <point x="258" y="836" type="move" name="top"/>
    </contour>
    <contour>
      <point x="465" y="10" type="move" name="ogonek"/>
    </contour>
  </outline>
</glyph>
<glyph name="florin" format="1">
  <advance width="917"/>
  <unicode hex="0192"/>
  <outline>
    <contour>
      <point x="213" y="-319" type="curve" smooth="yes"/>
      <point x="388" y="-319"/>
      <point x="479" y="-197"/>
      <point x="496" y="0" type="curve" smooth="yes"/>
      <point x="549" y="577" type="line"/>
      <point x="788" y="577" type="line"/>
      <point x="792" y="682" type="line"/>
      <point x="559" y="682" type="line"/>
      <point x="579" y="902" type="line" smooth="yes"/>
      <point x="591" y="1051"/>
      <point x="650" y="1096"/>
      <point x="736" y="1096" type="curve" smooth="yes"/>
      <point x="777" y="1096"/>
      <point x="796" y="1088"/>
      <point x="839" y="1076" type="curve"/>
      <point x="851" y="1195" type="line"/>
      <point x="809" y="1208"/>
      <point x="768" y="1221"/>
      <point x="713" y="1221" type="curve" smooth="yes"/>
      <point x="526" y="1221"/>
      <point x="437" y="1096"/>
      <point x="419" y="902" type="curve" smooth="yes"/>
      <point x="400" y="682" type="line"/>
      <point x="194" y="682" type="line"/>
      <point x="190" y="577" type="line"/>
      <point x="391" y="577" type="line"/>
      <point x="338" y="-4" type="line" smooth="yes"/>
      <point x="325" y="-152"/>
      <point x="270" y="-196"/>
      <point x="187" y="-196" type="curve" smooth="yes"/>
      <point x="142" y="-196"/>
      <point x="116" y="-183"/>
      <point x="76" y="-171" type="curve"/>
      <point x="65" y="-289" type="line"/>
      <point x="125" y="-310"/>
      <point x="162" y="-319"/>
    </contour>
  </outline>
</glyph>
<glyph name="uni0237" format="1">
  <advance width="539"/>
  <unicode hex="0237"/>
  <outline>
    <contour>
      <point x="46" y="-330" type="line"/>
      <point x="327" y="-319"/>
      <point x="368" y="-175"/>
      <point x="368" y="-67" type="curve" smooth="yes"/>
      <point x="368" y="835" type="line"/>
      <point x="209" y="835" type="line"/>
      <point x="209" y="-57" type="line" smooth="yes"/>
      <point x="209" y="-159"/>
      <point x="137" y="-189"/>
      <point x="46" y="-199" type="curve" smooth="yes"/>
      <point x="39" y="-199"/>
      <point x="25" y="-201"/>
      <point x="17" y="-202" type="curve"/>
    </contour>
    <contour>
      <point x="270" y="836" type="move" name="top"/>
    </contour>
  </outline>
</glyph>
<glyph name="dotaccent" format="1">
  <advance width="507"/>
  <unicode hex="02D9"/>
  <outline>
    <component base="period" xOffset="24" yOffset="182"/>
    <contour>
      <point x="124" y="836" type="move" name="_top"/>
    </contour>
  </outline>
</glyph>
<glyph name="hungarumlaut" format="1">
  <advance width="689"/>
  <unicode hex="02DD"/>
  <outline>
    <component base="acute" xOffset="14"/>
    <component base="acute" xOffset="243"/>
    <contour>
      <point x="358" y="836" type="move" name="_top"/>
    </contour>
  </outline>
</glyph>
<glyph name="dblgravecmb" format="1">
  <advance width="651"/>
  <unicode hex="030F"/>
  <outline>
    <component base="acute" xOffset="442" xScale="-1"/>
    <component base="acute" xOffset="650" xScale="-1"/>
    <contour>
      <point x="325" y="824" type="move" name="_top"/>
    </contour>
  </outline>
</glyph>
<glyph name="uni0326" format="1">
  <advance width="459"/>
  <unicode hex="0326"/>
  <outline>
    <contour>
      <point x="192" y="-432" type="curve" smooth="yes"/>
      <point x="218" y="-432"/>
      <point x="246" y="-417"/>
      <point x="263" y="-380" type="curve" smooth="yes"/>
      <point x="375" y="-110" type="line" smooth="yes"/>
      <point x="377" y="-105"/>
      <point x="378" y="-99"/>
      <point x="378" y="-94" type="curve" smooth="yes"/>
      <point x="378" y="-80"/>
      <point x="368" y="-71"/>
      <point x="356" y="-71" type="curve" smooth="yes"/>
      <point x="348" y="-71"/>
      <point x="339" y="-75"/>
      <point x="331" y="-84" type="curve" smooth="yes"/>
      <point x="141" y="-315" type="line"/>
      <point x="127" y="-333"/>
      <point x="120" y="-350"/>
      <point x="120" y="-366" type="curve" smooth="yes"/>
      <point x="120" y="-403"/>
      <point x="155" y="-432"/>
    </contour>
    <contour>
      <point x="249" y="0" type="move" name="_bottom"/>
    </contour>
  </outline>
</glyph>
<glyph name="mu" format="1">
  <advance width="1109"/>
  <unicode hex="03BC"/>
  <outline>
    <contour>
      <point x="144" y="-248" type="line"/>
      <point x="304" y="-248" type="line"/>
      <point x="304" y="281" type="line"/>
      <point x="144" y="299" type="line"/>
    </contour>
    <component base="u" xOffset="3"/>
  </outline>
</glyph>
<glyph name="dagger" format="1">
  <advance width="945"/>
  <unicode hex="2020"/>
  <outline>
    <contour>
      <point x="417" y="0" type="line"/>
      <point x="526" y="0" type="line"/>
      <point x="526" y="672" type="line"/>
      <point x="794" y="672" type="line"/>
      <point x="794" y="781" type="line"/>
      <point x="526" y="781" type="line"/>
      <point x="526" y="1049" type="line"/>
      <point x="417" y="1049" type="line"/>
      <point x="417" y="781" type="line"/>
      <point x="150" y="781" type="line"/>
      <point x="150" y="672" type="line"/>
      <point x="417" y="672" type="line"/>
    </contour>
  </outline>
</glyph>
<glyph name="daggerdbl" format="1">
  <advance width="947"/>
  <unicode hex="2021"/>
  <outline>
    <contour>
      <point x="418" y="0" type="line"/>
      <point x="527" y="0" type="line"/>
      <point x="527" y="250" type="line"/>
      <point x="795" y="250" type="line"/>
      <point x="795" y="359" type="line"/>
      <point x="527" y="359" type="line"/>
      <point x="527" y="672" type="line"/>
      <point x="795" y="672" type="line"/>
      <point x="795" y="781" type="line"/>
      <point x="527" y="781" type="line"/>
      <point x="527" y="1049" type="line"/>
      <point x="418" y="1049" type="line"/>
      <point x="418" y="781" type="line"/>
      <point x="151" y="781" type="line"/>
      <point x="151" y="672" type="line"/>
      <point x="418" y="672" type="line"/>
      <point x="418" y="359" type="line"/>
      <point x="151" y="359" type="line"/>
      <point x="151" y="250" type="line"/>
      <point x="418" y="250" type="line"/>
    </contour>
  </outline>
</glyph>
<glyph name="guilsinglright" format="1">
  <advance width="520"/>
  <unicode hex="203A"/>
  <outline>
    <contour>
      <point x="79" y="189" type="curve" smooth="yes"/>
      <point x="85" y="189"/>
      <point x="93" y="190"/>
      <point x="101" y="194" type="curve"/>
      <point x="367" y="414" type="line"/>
      <point x="404" y="438"/>
      <point x="423" y="471"/>
      <point x="423" y="504" type="curve" smooth="yes"/>
      <point x="423" y="535"/>
      <point x="405" y="568"/>
      <point x="367" y="592" type="curve"/>
      <point x="101" y="812" type="line"/>
      <point x="93" y="817"/>
      <point x="85" y="818"/>
      <point x="79" y="818" type="curve" smooth="yes"/>
      <point x="61" y="818"/>
      <point x="49" y="806"/>
      <point x="49" y="791" type="curve" smooth="yes"/>
      <point x="49" y="782"/>
      <point x="56" y="773"/>
      <point x="66" y="762" type="curve"/>
      <point x="245" y="504" type="line"/>
      <point x="66" y="245" type="line"/>
      <point x="56" y="233"/>
      <point x="49" y="224"/>
      <point x="49" y="215" type="curve" smooth="yes"/>
      <point x="49" y="201"/>
      <point x="61" y="189"/>
    </contour>
  </outline>
</glyph>
<glyph name="Euro" format="1">
  <advance width="1293"/>
  <unicode hex="20AC"/>
  <outline>
    <contour>
      <point x="843" y="-33" type="curve" smooth="yes"/>
      <point x="985" y="-33"/>
      <point x="1125" y="11"/>
      <point x="1221" y="59" type="curve"/>
      <point x="1221" y="208" type="line"/>
      <point x="1101" y="140"/>
      <point x="970" y="104"/>
      <point x="848" y="104" type="curve" smooth="yes"/>
      <point x="631" y="104"/>
      <point x="443" y="217"/>
      <point x="372" y="434" type="curve"/>
      <point x="781" y="434" type="line"/>
      <point x="781" y="539" type="line"/>
      <point x="347" y="539" type="line"/>
      <point x="342" y="571"/>
      <point x="340" y="605"/>
      <point x="340" y="640" type="curve" smooth="yes"/>
      <point x="340" y="652"/>
      <point x="340" y="664"/>
      <point x="341" y="675" type="curve"/>
      <point x="781" y="675" type="line"/>
      <point x="781" y="780" type="line"/>
      <point x="356" y="780" type="line"/>
      <point x="410" y="1025"/>
      <point x="613" y="1136"/>
      <point x="836" y="1136" type="curve" smooth="yes"/>
      <point x="967" y="1136"/>
      <point x="1104" y="1098"/>
      <point x="1221" y="1028" type="curve"/>
      <point x="1221" y="1170" type="line"/>
      <point x="1122" y="1227"/>
      <point x="975" y="1275"/>
      <point x="825" y="1275" type="curve" smooth="yes"/>
      <point x="518" y="1275"/>
      <point x="248" y="1093"/>
      <point x="187" y="780" type="curve"/>
      <point x="68" y="780" type="line"/>
      <point x="68" y="675" type="line"/>
      <point x="174" y="675" type="line"/>
      <point x="174" y="664"/>
      <point x="173" y="652"/>
      <point x="173" y="640" type="curve" smooth="yes"/>
      <point x="173" y="605"/>
      <point x="176" y="571"/>
      <point x="180" y="539" type="curve"/>
      <point x="68" y="539" type="line"/>
      <point x="68" y="434" type="line"/>
      <point x="201" y="434" type="line"/>
      <point x="283" y="140"/>
      <point x="543" y="-33"/>
    </contour>
  </outline>
</glyph>
<glyph name="minus" format="1">
  <advance width="951"/>
  <unicode hex="2212"/>
  <outline>
    <contour>
      <point x="153" y="540" type="line"/>
      <point x="797" y="540" type="line"/>
      <point x="797" y="648" type="line"/>
      <point x="153" y="648" type="line"/>
    </contour>
  </outline>
</glyph>
<glyph name="approxequal" format="1">
  <advance width="989"/>
  <unicode hex="2248"/>
  <outline>
    <contour>
      <point x="690" y="299" type="curve" smooth="yes"/>
      <point x="794" y="299"/>
      <point x="866" y="356"/>
      <point x="867" y="521" type="curve"/>
      <point x="763" y="521" type="line"/>
      <point x="760" y="458"/>
      <point x="731" y="420"/>
      <point x="685" y="420" type="curve" smooth="yes"/>
      <point x="597" y="420"/>
      <point x="437" y="535"/>
      <point x="305" y="535" type="curve" smooth="yes"/>
      <point x="209" y="535"/>
      <point x="124" y="476"/>
      <point x="123" y="313" type="curve"/>
      <point x="227" y="313" type="line"/>
      <point x="230" y="386"/>
      <point x="262" y="417"/>
      <point x="315" y="417" type="curve" smooth="yes"/>
      <point x="391" y="417"/>
      <point x="579" y="299"/>
    </contour>
    <contour>
      <point x="690" y="614" type="curve" smooth="yes"/>
      <point x="794" y="614"/>
      <point x="866" y="670"/>
      <point x="867" y="836" type="curve"/>
      <point x="763" y="836" type="line"/>
      <point x="760" y="773"/>
      <point x="731" y="735"/>
      <point x="685" y="735" type="curve" smooth="yes"/>
      <point x="597" y="735"/>
      <point x="437" y="850"/>
      <point x="305" y="850" type="curve" smooth="yes"/>
      <point x="209" y="850"/>
      <point x="124" y="790"/>
      <point x="123" y="627" type="curve"/>
      <point x="227" y="627" type="line"/>
      <point x="230" y="700"/>
      <point x="262" y="732"/>
      <point x="315" y="732" type="curve" smooth="yes"/>
      <point x="391" y="732"/>
      <point x="579" y="614"/>
    </contour>
  </outline>
</glyph>
<glyph name="lessequal" format="1">
  <advance width="1009"/>
  <unicode hex="2264"/>
  <outline>
    <contour>
      <point x="134" y="0" type="line"/>
      <point x="923" y="0" type="line"/>
      <point x="923" y="99" type="line"/>
      <point x="134" y="99" type="line"/>
    </contour>
    <contour>
      <point x="923" y="170" type="line"/>
      <point x="923" y="315" type="line"/>
      <point x="417" y="508" type="line"/>
      <point x="923" y="717" type="line"/>
      <point x="923" y="860" type="line"/>
      <point x="123" y="504" type="line"/>
    </contour>
  </outline>
</glyph>
<glyph name="greaterequal" format="1">
  <advance width="1009"/>
  <unicode hex="2265"/>
  <outline>
    <contour>
      <point x="131" y="0" type="line"/>
      <point x="920" y="0" type="line"/>
      <point x="920" y="99" type="line"/>
      <point x="131" y="99" type="line"/>
    </contour>
    <contour>
      <point x="128" y="860" type="line"/>
      <point x="128" y="720" type="line"/>
      <point x="633" y="527" type="line"/>
      <point x="128" y="318" type="line"/>
      <point x="128" y="170" type="line"/>
      <point x="928" y="531" type="line"/>
    </contour>
  </outline>
</glyph>
<glyph name="lozenge" format="1">
  <advance width="920"/>
  <unicode hex="25CA"/>
  <outline>
    <contour>
      <point x="463" y="-26" type="line"/>
      <point x="796" y="650" type="line"/>
      <point x="455" y="1326" type="line"/>
      <point x="123" y="650" type="line"/>
    </contour>
    <contour>
      <point x="464" y="199" type="line"/>
      <point x="248" y="650" type="line"/>
      <point x="455" y="1102" type="line"/>
      <point x="670" y="650" type="line"/>
    </contour>
  </outline>
</glyph>
<glyph name="uniFB03" format="1">
  <advance width="1714"/>
  <outline>
    <contour>
      <point x="1457" y="1045" type="curve" smooth="yes"/>
      <point x="1524" y="1045"/>
      <point x="1562" y="1096"/>
      <point x="1562" y="1148" type="curve" smooth="yes"/>
      <point x="1562" y="1198"/>
      <point x="1524" y="1252"/>
      <point x="1457" y="1252" type="curve" smooth="yes"/>
      <point x="1388" y="1252"/>
      <point x="1351" y="1199"/>
      <point x="1351" y="1148" type="curve" smooth="yes"/>
      <point x="1351" y="1096"/>
      <point x="1388" y="1045"/>
    </contour>
    <contour>
      <point x="370" y="710" type="line"/>
      <point x="803" y="710" type="line"/>
      <point x="803" y="0" type="line"/>
      <point x="962" y="0" type="line"/>
      <point x="962" y="710" type="line"/>
      <point x="1380" y="710" type="line"/>
      <point x="1380" y="0" type="line"/>
      <point x="1537" y="0" type="line"/>
      <point x="1537" y="835" type="line"/>
      <point x="959" y="835" type="line"/>
      <point x="959" y="902" type="line" smooth="yes"/>
      <point x="959" y="1045"/>
      <point x="1025" y="1087"/>
      <point x="1107" y="1087" type="curve" smooth="yes"/>
      <point x="1154" y="1087"/>
      <point x="1196" y="1072"/>
      <point x="1233" y="1062" type="curve"/>
      <point x="1233" y="1193" type="line"/>
      <point x="1190" y="1206"/>
      <point x="1136" y="1221"/>
      <point x="1080" y="1221" type="curve" smooth="yes"/>
      <point x="894" y="1221"/>
      <point x="800" y="1096"/>
      <point x="800" y="902" type="curve" smooth="yes"/>
      <point x="800" y="835" type="line"/>
      <point x="367" y="835" type="line"/>
      <point x="367" y="902" type="line" smooth="yes"/>
      <point x="367" y="1045"/>
      <point x="433" y="1087"/>
      <point x="515" y="1087" type="curve" smooth="yes"/>
      <point x="562" y="1087"/>
      <point x="602" y="1072"/>
      <point x="639" y="1062" type="curve"/>
      <point x="639" y="1193" type="line"/>
      <point x="596" y="1206"/>
      <point x="544" y="1221"/>
      <point x="488" y="1221" type="curve" smooth="yes"/>
      <point x="302" y="1221"/>
      <point x="208" y="1096"/>
      <point x="208" y="902" type="curve" smooth="yes"/>
      <point x="208" y="835" type="line"/>
      <point x="86" y="835" type="line"/>
      <point x="86" y="710" type="line"/>
      <point x="211" y="710" type="line"/>
      <point x="211" y="0" type="line"/>
      <point x="370" y="0" type="line"/>
    </contour>
  </outline>
</glyph>
